  0
SECTION
  2
HEADER
  9
$ACADVER
  1
AC1009
  9
$INSUNITS
 70
     1
  0
ENDSEC
  0
SECTION
  2
TABLES
  0
TABLE
  2
LAYER
 70
     8
  0
LAYER
  2
0
 62
     7
 70
0
  6
CONTINUOUS
  0
LAYER
  2
1
 62
     1
 70
0
  6
CONTINUOUS
  0
LAYER
  2
2
 62
     2
 70
0
  6
CONTINUOUS
  0
LAYER
  2
3
 62
     3
 70
0
  6
CONTINUOUS
  0
LAYER
  2
4
 62
     4
 70
0
  6
CONTINUOUS
  0
LAYER
  2
5
 62
     5
 70
0
  6
CONTINUOUS
  0
LAYER
  2
6
 62
     6
 70
0
  6
CONTINUOUS
  0
LAYER
  2
7
 62
     7
 70
0
  6
CONTINUOUS
  0
ENDTAB
  0
TABLE
  2
STYLE
 70
     1
  0
STYLE
 70
     0
  2
STANDARD
  3
TXT
 40
0.00
 41
1.00
 42
1.00
 50
0.00
 71
     0
  0
ENDTAB
  0
ENDSEC
  0
SECTION
  2
BLOCKS
  0
BLOCK
  8
0
  2
EPAD
 70
0
 10
0.0
 20
0.0
  0
POLYLINE
  8
0
 66
1
 70
1
 40
0.5
 41
0.5
  0
VERTEX
  8
0
 10
-0.25
 20
0.0
 42
1.0
  0
VERTEX
  8
0
 10
0.25
 20
0.0
 42
1.0
  0
SEQEND
  8
0
  0
ENDBLK
  8
0
  0
BLOCK
  8
0
  2
RPAD
 70
0
 10
0.0
 20
0.0
  0
TRACE
  8
0
 10
-0.5
 20
-0.5
 11
-0.5
 21
0.5
 12
0.5
 22
-0.5
 13
0.5
 23
0.5
  0
ENDBLK
  8
0
  0
ENDSEC
0
SECTION
2
ENTITIES
0
INSERT
8
0
2
EPAD
10
0.078110
20
0.028520
41
0.065000
42
0.065000
0
INSERT
8
0
2
EPAD
10
0.078110
20
0.028520
41
0.065000
42
0.065000
0
INSERT
8
0
2
EPAD
10
-0.047890
20
0.028520
41
0.065000
42
0.065000
0
INSERT
8
0
2
EPAD
10
-0.047890
20
0.028520
41
0.065000
42
0.065000
0
INSERT
8
0
2
EPAD
10
-0.047890
20
-0.069480
41
0.065000
42
0.065000
0
INSERT
8
0
2
EPAD
10
-0.047890
20
-0.069480
41
0.065000
42
0.065000
0
INSERT
8
0
2
EPAD
10
0.078110
20
-0.069480
41
0.065000
42
0.065000
0
INSERT
8
0
2
EPAD
10
0.078110
20
-0.069480
41
0.065000
42
0.065000
0
INSERT
8
0
2
EPAD
10
-0.221890
20
-0.157480
41
0.150000
42
0.150000
0
INSERT
8
0
2
EPAD
10
-0.221890
20
-0.157480
41
0.150000
42
0.150000
0
INSERT
8
0
2
EPAD
10
0.252110
20
-0.157480
41
0.150000
42
0.150000
0
INSERT
8
0
2
EPAD
10
0.252110
20
-0.157480
41
0.150000
42
0.150000
0
INSERT
8
0
2
EPAD
10
0.696220
20
-0.009842
41
0.256220
42
0.256220
0
INSERT
8
0
2
EPAD
10
-0.681732
20
-0.009842
41
0.256220
42
0.256220
0
INSERT
8
0
2
EPAD
10
0.127778
20
0.411370
41
0.090000
42
0.090000
0
INSERT
8
0
2
EPAD
10
0.027778
20
0.411370
41
0.090000
42
0.090000
0
INSERT
8
0
2
EPAD
10
-0.072222
20
0.411370
41
0.090000
42
0.090000
0
INSERT
8
0
2
EPAD
10
-0.172222
20
0.411370
41
0.090000
42
0.090000
0
POLYLINE
8
0
66
1
40
0.008000
41
0.008000
0
VERTEX
8
0
10
-0.880740
20
-0.290056
0
VERTEX
8
0
10
0.887748
20
-0.290056
0
VERTEX
8
0
10
0.887748
20
0.579527
0
VERTEX
8
0
10
-0.880740
20
0.579527
0
VERTEX
8
0
10
-0.880740
20
-0.290056
0
SEQEND
8
0
0
POLYLINE
8
0
66
1
40
0.006000
41
0.006000
0
VERTEX
8
0
10
0.053110
20
-0.561480
0
VERTEX
8
0
10
0.078110
20
-0.611480
0
SEQEND
8
0
0
POLYLINE
8
0
66
1
40
0.006000
41
0.006000
0
VERTEX
8
0
10
0.103110
20
-0.561480
0
VERTEX
8
0
10
0.078110
20
-0.611480
0
SEQEND
8
0
0
POLYLINE
8
0
66
1
40
0.006000
41
0.006000
0
VERTEX
8
0
10
-0.220890
20
-0.561480
0
VERTEX
8
0
10
0.251110
20
-0.561480
0
VERTEX
8
0
10
0.251110
20
0.088520
0
VERTEX
8
0
10
-0.220890
20
0.088520
0
VERTEX
8
0
10
-0.220890
20
-0.561480
0
SEQEND
8
0
0
TEXT
8
0
10
-0.059890
20
0.097520
40
0.048000
41
1.041667
1
J13
0
TEXT
8
0
10
-0.240804
20
0.179835
40
0.056000
41
0.714286
1
C5  C4   GND
0
TEXT
8
0
10
-0.831347
20
0.232293
40
0.064000
41
0.937500
1
JUDAPIES
0
POLYLINE
8
0
66
1
40
0.008000
41
0.008000
0
VERTEX
8
0
10
-0.272222
20
0.261370
0
VERTEX
8
0
10
0.227778
20
0.261370
0
VERTEX
8
0
10
0.227778
20
0.511370
0
VERTEX
8
0
10
-0.272222
20
0.511370
0
VERTEX
8
0
10
-0.272222
20
0.261370
0
SEQEND
8
0
0
POLYLINE
8
0
66
1
40
0.008000
41
0.008000
0
VERTEX
8
0
10
0.227778
20
0.311370
0
VERTEX
8
0
10
-0.272222
20
0.311370
0
SEQEND
8
0
0
TEXT
8
0
10
-0.413222
20
0.372370
40
0.048000
41
1.041667
1
J2
0
TEXT
8
0
10
-0.245804
20
0.513835
40
0.056000
41
0.714286
1
D+  D-   GND
0
TEXT
8
0
10
0.457944
20
0.197812
40
0.056000
41
0.714286
1
USB_GP
0
POLYLINE
8
0
66
1
40
0.008000
41
0.008000
0
VERTEX
8
0
10
-0.880740
20
-0.290056
0
VERTEX
8
0
10
0.887748
20
-0.290056
0
VERTEX
8
0
10
0.887748
20
0.579527
0
VERTEX
8
0
10
-0.880740
20
0.579527
0
VERTEX
8
0
10
-0.880740
20
-0.290056
0
SEQEND
8
0
0
POLYLINE
8
0
66
1
40
0.006000
41
0.006000
0
VERTEX
8
0
10
0.053110
20
-0.561480
0
VERTEX
8
0
10
0.078110
20
-0.611480
0
SEQEND
8
0
0
POLYLINE
8
0
66
1
40
0.006000
41
0.006000
0
VERTEX
8
0
10
0.103110
20
-0.561480
0
VERTEX
8
0
10
0.078110
20
-0.611480
0
SEQEND
8
0
0
POLYLINE
8
0
66
1
40
0.006000
41
0.006000
0
VERTEX
8
0
10
-0.220890
20
-0.561480
0
VERTEX
8
0
10
0.251110
20
-0.561480
0
VERTEX
8
0
10
0.251110
20
0.088520
0
VERTEX
8
0
10
-0.220890
20
0.088520
0
VERTEX
8
0
10
-0.220890
20
-0.561480
0
SEQEND
8
0
0
TEXT
8
0
10
-0.059890
20
0.097520
40
0.048000
41
1.041667
1
J13
0
TEXT
8
0
10
-0.240804
20
0.179835
40
0.056000
41
0.714286
1
C5  C4   GND
0
TEXT
8
0
10
-0.831347
20
0.232293
40
0.064000
41
0.937500
1
JUDAPIES
0
POLYLINE
8
0
66
1
40
0.008000
41
0.008000
0
VERTEX
8
0
10
-0.272222
20
0.261370
0
VERTEX
8
0
10
0.227778
20
0.261370
0
VERTEX
8
0
10
0.227778
20
0.511370
0
VERTEX
8
0
10
-0.272222
20
0.511370
0
VERTEX
8
0
10
-0.272222
20
0.261370
0
SEQEND
8
0
0
POLYLINE
8
0
66
1
40
0.008000
41
0.008000
0
VERTEX
8
0
10
0.227778
20
0.311370
0
VERTEX
8
0
10
-0.272222
20
0.311370
0
SEQEND
8
0
0
TEXT
8
0
10
-0.413222
20
0.372370
40
0.048000
41
1.041667
1
J2
0
TEXT
8
0
10
-0.245804
20
0.513835
40
0.056000
41
0.714286
1
D+  D-   GND
0
POLYLINE
8
0
66
1
40
0.000000
41
0.000000
0
VERTEX
8
0
10
0.254961
20
0.308670
0
VERTEX
8
0
10
0.852520
20
0.308670
0
VERTEX
8
0
10
0.852520
20
0.507189
0
VERTEX
8
0
10
0.254961
20
0.507189
0
VERTEX
8
0
10
0.254961
20
0.308670
0
SEQEND
8
0
0
TEXT
8
0
10
0.457944
20
0.197812
40
0.056000
41
0.714286
1
USB_GP
0
ENDSEC
0
EOF

