  0
SECTION
  2
HEADER
  9
$ACADVER
  1
AC1015
  9
$ACADMAINTVER
 70
     6
  9
$DWGCODEPAGE
  3
ANSI_1252
  9
$INSBASE
 10
0.0
 20
0.0
 30
0.0
  9
$EXTMIN
 10
-80.5
 20
-82.0
 30
0.0
  9
$EXTMAX
 10
80.5
 20
110.0
 30
0.0
  9
$LIMMIN
 10
0.0
 20
0.0
  9
$LIMMAX
 10
420.0
 20
297.0
  9
$ORTHOMODE
 70
     0
  9
$REGENMODE
 70
     1
  9
$FILLMODE
 70
     1
  9
$QTEXTMODE
 70
     0
  9
$MIRRTEXT
 70
     1
  9
$LTSCALE
 40
1.0
  9
$ATTMODE
 70
     1
  9
$TEXTSIZE
 40
3.5
  9
$TRACEWID
 40
1.0
  9
$TEXTSTYLE
  7
Standard
  9
$CLAYER
  8
0
  9
$CELTYPE
  6
ByLayer
  9
$CECOLOR
 62
   256
  9
$CELTSCALE
 40
1.0
  9
$DISPSILH
 70
     0
  9
$DIMSCALE
 40
1.0
  9
$DIMASZ
 40
4.7625
  9
$DIMEXO
 40
1.27
  9
$DIMDLI
 40
3.75
  9
$DIMRND
 40
0.0
  9
$DIMDLE
 40
0.0
  9
$DIMEXE
 40
3.175
  9
$DIMTP
 40
0.0
  9
$DIMTM
 40
0.0
  9
$DIMTXT
 40
3.5
  9
$DIMCEN
 40
2.5
  9
$DIMTSZ
 40
0.0
  9
$DIMTOL
 70
     0
  9
$DIMLIM
 70
     0
  9
$DIMTIH
 70
     1
  9
$DIMTOH
 70
     1
  9
$DIMSE1
 70
     0
  9
$DIMSE2
 70
     0
  9
$DIMTAD
 70
     0
  9
$DIMZIN
 70
     0
  9
$DIMBLK
  1

  9
$DIMASO
 70
     1
  9
$DIMSHO
 70
     1
  9
$DIMPOST
  1

  9
$DIMAPOST
  1

  9
$DIMALT
 70
     0
  9
$DIMALTD
 70
     3
  9
$DIMALTF
 40
0.0393700787
  9
$DIMLFAC
 40
1.0
  9
$DIMTOFL
 70
     1
  9
$DIMTVP
 40
0.0
  9
$DIMTIX
 70
     0
  9
$DIMSOXD
 70
     0
  9
$DIMSAH
 70
     0
  9
$DIMBLK1
  1

  9
$DIMBLK2
  1

  9
$DIMSTYLE
  2
ISO-25
  9
$DIMCLRD
 70
     0
  9
$DIMCLRE
 70
     0
  9
$DIMCLRT
 70
     0
  9
$DIMTFAC
 40
1.0
  9
$DIMGAP
 40
1.524
  9
$DIMJUST
 70
     0
  9
$DIMSD1
 70
     0
  9
$DIMSD2
 70
     0
  9
$DIMTOLJ
 70
     0
  9
$DIMTZIN
 70
     0
  9
$DIMALTZ
 70
     0
  9
$DIMALTTZ
 70
     0
  9
$DIMUPT
 70
     0
  9
$DIMDEC
 70
     4
  9
$DIMTDEC
 70
     3
  9
$DIMALTU
 70
     2
  9
$DIMALTTD
 70
     3
  9
$DIMTXSTY
  7
Standard
  9
$DIMAUNIT
 70
     0
  9
$DIMADEC
 70
     2
  9
$DIMALTRND
 40
0.0
  9
$DIMAZIN
 70
     0
  9
$DIMDSEP
 70
    44
  9
$DIMATFIT
 70
     3
  9
$DIMFRAC
 70
     0
  9
$DIMLDRBLK
  1

  9
$DIMLUNIT
 70
     2
  9
$DIMLWD
 70
    -2
  9
$DIMLWE
 70
    -2
  9
$DIMTMOVE
 70
     0
  9
$LUNITS
 70
     2
  9
$LUPREC
 70
     4
  9
$SKETCHINC
 40
1.0
  9
$FILLETRAD
 40
10.0
  9
$AUNITS
 70
     0
  9
$AUPREC
 70
     2
  9
$MENU
  1
.
  9
$ELEVATION
 40
0.0
  9
$PELEVATION
 40
0.0
  9
$THICKNESS
 40
0.0
  9
$LIMCHECK
 70
     0
  9
$CHAMFERA
 40
10.0
  9
$CHAMFERB
 40
10.0
  9
$CHAMFERC
 40
20.0
  9
$CHAMFERD
 40
0.0
  9
$SKPOLY
 70
     0
  9
$TDCREATE
 40
2459460.494330625
  9
$TDUCREATE
 40
2459460.702663959
  9
$TDUPDATE
 40
2459460.494357951
  9
$TDUUPDATE
 40
2459460.702691285
  9
$TDINDWG
 40
0.0000000116
  9
$TDUSRTIMER
 40
0.0000000116
  9
$USRTIMER
 70
     1
  9
$ANGBASE
 50
0.0
  9
$ANGDIR
 70
     0
  9
$PDMODE
 70
     0
  9
$PDSIZE
 40
-1.0
  9
$PLINEWID
 40
0.0
  9
$SPLFRAME
 70
     0
  9
$SPLINETYPE
 70
     6
  9
$SPLINESEGS
 70
     8
  9
$HANDSEED
  5
CC
  9
$SURFTAB1
 70
     6
  9
$SURFTAB2
 70
     6
  9
$SURFTYPE
 70
     6
  9
$SURFU
 70
     6
  9
$SURFV
 70
     6
  9
$UCSBASE
  2

  9
$UCSNAME
  2

  9
$UCSORG
 10
0.0
 20
0.0
 30
0.0
  9
$UCSXDIR
 10
1.0
 20
0.0
 30
0.0
  9
$UCSYDIR
 10
0.0
 20
1.0
 30
0.0
  9
$UCSORTHOREF
  2

  9
$UCSORTHOVIEW
 70
     0
  9
$UCSORGTOP
 10
0.0
 20
0.0
 30
0.0
  9
$UCSORGBOTTOM
 10
0.0
 20
0.0
 30
0.0
  9
$UCSORGLEFT
 10
0.0
 20
0.0
 30
0.0
  9
$UCSORGRIGHT
 10
0.0
 20
0.0
 30
0.0
  9
$UCSORGFRONT
 10
0.0
 20
0.0
 30
0.0
  9
$UCSORGBACK
 10
0.0
 20
0.0
 30
0.0
  9
$PUCSBASE
  2

  9
$PUCSNAME
  2

  9
$PUCSORG
 10
0.0
 20
0.0
 30
0.0
  9
$PUCSXDIR
 10
1.0
 20
0.0
 30
0.0
  9
$PUCSYDIR
 10
0.0
 20
1.0
 30
0.0
  9
$PUCSORTHOREF
  2

  9
$PUCSORTHOVIEW
 70
     0
  9
$PUCSORGTOP
 10
0.0
 20
0.0
 30
0.0
  9
$PUCSORGBOTTOM
 10
0.0
 20
0.0
 30
0.0
  9
$PUCSORGLEFT
 10
0.0
 20
0.0
 30
0.0
  9
$PUCSORGRIGHT
 10
0.0
 20
0.0
 30
0.0
  9
$PUCSORGFRONT
 10
0.0
 20
0.0
 30
0.0
  9
$PUCSORGBACK
 10
0.0
 20
0.0
 30
0.0
  9
$USERI1
 70
     0
  9
$USERI2
 70
     0
  9
$USERI3
 70
     0
  9
$USERI4
 70
     0
  9
$USERI5
 70
     0
  9
$USERR1
 40
0.0
  9
$USERR2
 40
0.0
  9
$USERR3
 40
0.0
  9
$USERR4
 40
0.0
  9
$USERR5
 40
0.0
  9
$WORLDVIEW
 70
     1
  9
$SHADEDGE
 70
     3
  9
$SHADEDIF
 70
    70
  9
$TILEMODE
 70
     1
  9
$MAXACTVP
 70
    64
  9
$PINSBASE
 10
0.0
 20
0.0
 30
0.0
  9
$PLIMCHECK
 70
     0
  9
$PEXTMIN
 10
1.0000000000E+20
 20
1.0000000000E+20
 30
1.0000000000E+20
  9
$PEXTMAX
 10
-1.0000000000E+20
 20
-1.0000000000E+20
 30
-1.0000000000E+20
  9
$PLIMMIN
 10
0.0
 20
0.0
  9
$PLIMMAX
 10
420.0
 20
297.0
  9
$UNITMODE
 70
     0
  9
$VISRETAIN
 70
     1
  9
$PLINEGEN
 70
     0
  9
$PSLTSCALE
 70
     1
  9
$TREEDEPTH
 70
  3020
  9
$CMLSTYLE
  2
Standard
  9
$CMLJUST
 70
     0
  9
$CMLSCALE
 40
20.0
  9
$PROXYGRAPHICS
 70
     1
  9
$MEASUREMENT
 70
     1
  9
$CELWEIGHT
370
    -1
  9
$ENDCAPS
280
     0
  9
$JOINSTYLE
280
     0
  9
$LWDISPLAY
290
     1
  9
$INSUNITS
 70
     4
  9
$HYPERLINKBASE
  1

  9
$STYLESHEET
  1

  9
$XEDIT
290
     1
  9
$CEPSNTYPE
380
     0
  9
$PSTYLEMODE
290
     1
  9
$FINGERPRINTGUID
  2
{6668EF8E-9315-4B58-BDD2-52C607401E89}
  9
$VERSIONGUID
  2
{FAEB1C32-E019-11D5-929B-00C0DF256EC4}
  9
$EXTNAMES
290
     1
  9
$PSVPSCALE
 40
0.0
  9
$OLESTARTUP
290
     0
  0
ENDSEC
  0
SECTION
  2
CLASSES
  0
CLASS
  1
ACDBDICTIONARYWDFLT
  2
AcDbDictionaryWithDefault
  3
ObjectDBX Classes
 90
        0
280
     0
281
     0
  0
CLASS
  1
VISUALSTYLE
  2
AcDbVisualStyle
  3
ObjectDBX Classes
 90
     4095
280
     0
281
     0
  0
CLASS
  1
MATERIAL
  2
AcDbMaterial
  3
ObjectDBX Classes
 90
     1153
280
     0
281
     0
  0
CLASS
  1
ACDBPLACEHOLDER
  2
AcDbPlaceHolder
  3
ObjectDBX Classes
 90
        0
280
     0
281
     0
  0
CLASS
  1
LAYOUT
  2
AcDbLayout
  3
ObjectDBX Classes
 90
        0
280
     0
281
     0
  0
ENDSEC
  0
SECTION
  2
TABLES
  0
TABLE
  2
VPORT
  5
8
330
0
100
AcDbSymbolTable
 70
     1
  0
VPORT
  5
29
330
8
100
AcDbSymbolTableRecord
100
AcDbViewportTableRecord
  2
*Active
 70
     0
 10
0.0
 20
0.0
 11
1.0
 21
1.0
 12
0.0
 22
14.0
 13
0.0
 23
0.0
 14
10.0
 24
10.0
 15
10.0
 25
10.0
 16
0.0
 26
0.0
 36
1.0
 17
0.0
 27
0.0
 37
0.0
 40
195.84
 41
0.8385416667
 42
50.0
 43
0.0
 44
0.0
 50
0.0
 51
0.0
 71
     0
 72
   100
 73
     1
 74
     3
 75
     0
 76
     0
 77
     0
 78
     0
281
     0
 65
     1
110
0.0
120
0.0
130
0.0
111
1.0
121
0.0
131
0.0
112
0.0
122
1.0
132
0.0
 79
     0
146
0.0
  0
ENDTAB
  0
TABLE
  2
LTYPE
  5
5
330
0
100
AcDbSymbolTable
 70
     6
  0
LTYPE
  5
14
330
5
100
AcDbSymbolTableRecord
100
AcDbLinetypeTableRecord
  2
ByBlock
 70
     0
  3

 72
    65
 73
     0
 40
0.0
  0
LTYPE
  5
15
330
5
100
AcDbSymbolTableRecord
100
AcDbLinetypeTableRecord
  2
ByLayer
 70
     0
  3

 72
    65
 73
     0
 40
0.0
  0
LTYPE
  5
16
330
5
100
AcDbSymbolTableRecord
100
AcDbLinetypeTableRecord
  2
Continuous
 70
     0
  3
Solid line
 72
    65
 73
     0
 40
0.0
  0
LTYPE
  5
3F
330
5
100
AcDbSymbolTableRecord
100
AcDbLinetypeTableRecord
  2
HIDDEN
 70
     0
  3
Hidden __ __ __ __ __ __ __ __ __ __ __ __ __ __
 72
    65
 73
     2
 40
1.905
 49
1.27
 74
     0
 49
-0.635
 74
     0
  0
LTYPE
  5
40
330
5
100
AcDbSymbolTableRecord
100
AcDbLinetypeTableRecord
  2
PHANTOM
 70
     0
  3
Phantom ______  __  __  ______  __  __  ______
 72
    65
 73
     6
 40
12.7
 49
6.35
 74
     0
 49
-1.27
 74
     0
 49
1.27
 74
     0
 49
-1.27
 74
     0
 49
1.27
 74
     0
 49
-1.27
 74
     0
  0
LTYPE
  5
41
330
5
100
AcDbSymbolTableRecord
100
AcDbLinetypeTableRecord
  2
CENTER
 70
     0
  3
Center ____ _ ____ _ ____ _ ____ _ ____ _ ____
 72
    65
 73
     4
 40
10.16
 49
6.35
 74
     0
 49
-1.27
 74
     0
 49
1.27
 74
     0
 49
-1.27
 74
     0
  0
LTYPE
  5
42
330
5
100
AcDbSymbolTableRecord
100
AcDbLinetypeTableRecord
  2
CENTERX2
 70
     0
  3
Center (2x) ________  __  ________  __  _____
 72
    65
 73
     4
 40
20.32
 49
12.7
 74
     0
 49
-2.54
 74
     0
 49
2.54
 74
     0
 49
-2.54
 74
     0
  0
LTYPE
  5
43
330
5
100
AcDbSymbolTableRecord
100
AcDbLinetypeTableRecord
  2
DOT2
 70
     0
  3
Dot (.5x) ........................................
 72
    65
 73
     2
 40
0.635
 49
0.0
 74
     0
 49
-0.635
 74
     0
  0
ENDTAB
  0
TABLE
  2
LAYER
  5
2
330
0
100
AcDbSymbolTable
 70
     1
  0
LAYER
  5
10
330
2
100
AcDbSymbolTableRecord
100
AcDbLayerTableRecord
  2
0
 70
     0
 62
     7
  6
Continuous
370
    -3
390
F
  0
ENDTAB
  0
TABLE
  2
STYLE
  5
3
330
0
100
AcDbSymbolTable
 70
     1
  0
STYLE
  5
11
330
3
100
AcDbSymbolTableRecord
100
AcDbTextStyleTableRecord
  2
Standard
 70
     0
 40
0.0
 41
1.0
 50
0.0
 71
     0
 42
3.5
  3
txt
  4

  0
ENDTAB
  0
TABLE
  2
VIEW
  5
6
330
0
100
AcDbSymbolTable
 70
     0
  0
ENDTAB
  0
TABLE
  2
UCS
  5
7
330
0
100
AcDbSymbolTable
 70
     0
  0
ENDTAB
  0
TABLE
  2
APPID
  5
9
330
0
100
AcDbSymbolTable
 70
     1
  0
APPID
  5
12
330
9
100
AcDbSymbolTableRecord
100
AcDbRegAppTableRecord
  2
ACAD
 70
     0
  0
ENDTAB
  0
TABLE
  2
DIMSTYLE
  5
A
330
0
100
AcDbSymbolTable
 70
     1
100
AcDbDimStyleTable
  0
DIMSTYLE
105
27
330
A
100
AcDbSymbolTableRecord
100
AcDbDimStyleTableRecord
  2
ISO-25
 70
     0
 41
2.5
 42
0.625
 43
3.75
 44
1.25
 73
     0
 74
     0
 77
     1
 78
     8
140
2.5
141
2.5
143
0.0393700787
147
0.625
171
     3
172
     1
178
     0
271
     2
272
     2
274
     3
278
    44
283
     0
284
     8
340
11
  0
ENDTAB
  0
TABLE
  2
BLOCK_RECORD
  5
1
330
0
100
AcDbSymbolTable
 70
     1
  0
BLOCK_RECORD
  5
1F
330
1
100
AcDbSymbolTableRecord
100
AcDbBlockTableRecord
  2
*Model_Space
340
22
  0
BLOCK_RECORD
  5
1B
330
1
100
AcDbSymbolTableRecord
100
AcDbBlockTableRecord
  2
*Paper_Space
340
1E
  0
BLOCK_RECORD
  5
23
330
1
100
AcDbSymbolTableRecord
100
AcDbBlockTableRecord
  2
*Paper_Space0
340
26
  0
ENDTAB
  0
ENDSEC
  0
SECTION
  2
BLOCKS
  0
BLOCK
  5
20
330
1F
100
AcDbEntity
  8
0
100
AcDbBlockBegin
  2
*Model_Space
 70
     0
 10
0.0
 20
0.0
 30
0.0
  3
*Model_Space
  1

  0
ENDBLK
  5
21
330
1F
100
AcDbEntity
  8
0
100
AcDbBlockEnd
  0
BLOCK
  5
1C
330
1B
100
AcDbEntity
 67
     1
  8
0
100
AcDbBlockBegin
  2
*Paper_Space
 70
     0
 10
0.0
 20
0.0
 30
0.0
  3
*Paper_Space
  1

  0
ENDBLK
  5
1D
330
1B
100
AcDbEntity
 67
     1
  8
0
100
AcDbBlockEnd
  0
BLOCK
  5
24
330
23
100
AcDbEntity
  8
0
100
AcDbBlockBegin
  2
*Paper_Space0
 70
     0
 10
0.0
 20
0.0
 30
0.0
  3
*Paper_Space0
  1

  0
ENDBLK
  5
25
330
23
100
AcDbEntity
  8
0
100
AcDbBlockEnd
  0
ENDSEC
  0
SECTION
  2
ENTITIES
  0
CIRCLE
  5
46
330
1F
100
AcDbEntity
  8
0
  6
Continuous
 62
     7
370
    15
100
AcDbCircle
 10
0.0
 20
34.0
 30
0.0
 40
15.88500000000002
  0
CIRCLE
  5
47
330
1F
100
AcDbEntity
  8
0
  6
Continuous
 62
     7
370
    15
100
AcDbCircle
 10
0.0
 20
34.0
 30
0.0
 40
15.28876253765253
  0
CIRCLE
  5
48
330
1F
100
AcDbEntity
  8
0
  6
Continuous
 62
     7
370
    15
100
AcDbCircle
 10
0.0
 20
34.0
 30
0.0
 40
19.24999999999999
  0
LWPOLYLINE
  5
49
330
1F
100
AcDbEntity
  8
0
  6
Continuous
 62
     7
370
    15
100
AcDbPolyline
 90
       48
 70
   128
 43
0.0
 10
31.5174615475
 20
49.8763432662
 10
33.2574950431
 20
47.3469428022
 10
34.7218653004
 20
44.6924134185
 10
35.8984345126
 20
41.9347578597
 10
36.7774503854
 20
39.0968336579
 10
37.3516269714
 20
36.2021636723
 10
37.6162050613
 20
33.2747411141
 10
37.568991632
 20
30.3388306726
 10
37.2103780242
 20
27.4187673911
 10
36.5433366983
 20
24.5387549595
 10
35.5733965966
 20
21.7226650961
 10
34.3085973152
 20
18.9938396807
 10
32.759422466
 20
16.3748972794
 10
30.9387127801
 20
13.8875456651
 10
28.8615596747
 20
11.5524018864
 10
26.5451801634
 20
9.3888213789
 10
24.0087741494
 20
7.4147375319
 10
21.2733652814
 20
5.6465130434
 10
18.3616266941
 20
4.0988042935
 10
15.2976930762
 20
2.7844398612
 10
12.1069606237
 20
1.7143141918
 10
8.8158765371
 20
0.897297295
 10
5.4517198072
 20
0.340161224
 10
2.0423751058
 20
0.0475239434
 10
-1.3838983431
 20
0.0218110519
 10
-4.7987009972
 20
0.2632356775
 10
-8.173728393
 20
0.7697967104
 10
-11.4810057543
 20
1.5372953903
 10
-14.6931198682
 20
2.5593701083
 10
-17.783446307
 20
3.8275491373
 10
-20.7263701109
 20
5.3313208516
 10
-23.4974981046
 20
7.0582208554
 10
-26.0738610864
 20
8.9939352972
 10
-28.4341042138
 20
11.1224195136
 10
-30.5586640092
 20
13.4260310198
 10
-32.4299305163
 20
15.8856757437
 10
-34.0323932649
 20
18.480966292
 10
-35.3527698334
 20
21.1903909365
 10
-36.3801159435
 20
23.9914919193
 10
-37.1059161748
 20
26.8610515998
 10
-37.5241545466
 20
29.7752848999
 10
-37.6313643835
 20
32.710036453
 10
-37.4266570493
 20
35.6409808214
 10
-36.9117293131
 20
38.5438241247
 10
-36.0908492849
 20
41.3945054049
 10
-34.9708210383
 20
44.1693960624
 10
-33.5609282134
 20
46.8454957077
 10
-31.8728570669
 20
49.4006228056
  0
SPLINE
  5
4C
330
1F
100
AcDbEntity
  8
0
  6
Continuous
 62
     7
370
    15
100
AcDbSpline
210
0.0
220
0.0
230
1.0
 70
     8
 71
     3
 72
    38
 73
    34
 74
     0
 42
0.00000001
 43
0.00000001
 12
1.0
 22
0.0
 32
0.0
 13
1.0
 23
0.0
 33
0.0
 40
0.0
 40
0.0
 40
0.0
 40
0.0
 40
0.0625
 40
0.0625
 40
0.1249999999999999
 40
0.1249999999999999
 40
0.1874999999999999
 40
0.1874999999999999
 40
0.2499999999999998
 40
0.2499999999999998
 40
0.3749999999999999
 40
0.3749999999999999
 40
0.4375
 40
0.4375
 40
0.5
 40
0.5
 40
0.5625000000000001
 40
0.5625000000000001
 40
0.6250000000000001
 40
0.6250000000000001
 40
0.6875000000000001
 40
0.6875000000000001
 40
0.75
 40
0.75
 40
0.8125
 40
0.8125
 40
0.84375
 40
0.84375
 40
0.875
 40
0.875
 40
0.9375
 40
0.9375
 40
1.0
 40
1.0
 40
1.0
 40
1.0
 10
15.92020539707182
 20
11.16209296818222
 30
0.0
 10
15.37845950351843
 20
10.7665920063428
 30
0.0
 10
14.79761534165825
 20
10.42333671117189
 30
0.0
 10
13.58038573854077
 20
9.811044015775035
 30
0.0
 10
12.94075206006954
 20
9.54212691473311
 30
0.0
 10
11.63454452306081
 20
9.07587074163523
 30
0.0
 10
10.96607451934761
 20
8.877512942454288
 30
0.0
 10
9.602819701813502
 20
8.540341760603305
 30
0.0
 10
8.917985279497609
 20
8.404066897912818
 30
0.0
 10
6.859980464013977
 20
8.074116751021757
 30
0.0
 10
5.481083377116115
 20
7.960167968417451
 30
0.0
 10
3.40713803324183
 20
7.875360396002919
 30
0.0
 10
2.714913697240414
 20
7.861073732224782
 30
0.0
 10
1.32963002207202
 20
7.845341561541449
 30
0.0
 10
0.6366015168447969
 20
7.843421872652599
 30
0.0
 10
-0.7497243742941492
 20
7.843717496024798
 30
0.0
 10
-1.443022968239223
 20
7.845951386114498
 30
0.0
 10
-2.83045022462639
 20
7.863184435008068
 30
0.0
 10
-3.524608294383699
 20
7.878635836346362
 30
0.0
 10
-4.914829207613717
 20
7.9388313400518
 30
0.0
 10
-5.612303350500142
 20
7.983908142414441
 30
0.0
 10
-6.994056637290436
 20
8.115819770836577
 30
0.0
 10
-7.679715432924833
 20
8.202575616478166
 30
0.0
 10
-9.038279138113662
 20
8.426928429137055
 30
0.0
 10
-9.711212272809783
 20
8.564412881596425
 30
0.0
 10
-10.7093126956712
 20
8.81568214736735
 30
0.0
 10
-11.04012688484352
 20
8.90695658402235
 30
0.0
 10
-11.69760687118306
 20
9.10604229168409
 30
0.0
 10
-12.02531037045545
 20
9.214237539177871
 30
0.0
 10
-12.99261138026027
 20
9.563219934278667
 30
0.0
 10
-13.61590615375276
 20
9.827541946961105
 30
0.0
 10
-14.81114298303116
 20
10.43156832256113
 30
0.0
 10
-15.38367822498988
 20
10.77040192790583
 30
0.0
 10
-15.92020539707182
 20
11.16209296818221
 30
0.0
  0
SPLINE
  5
4E
330
1F
100
AcDbEntity
  8
0
  6
Continuous
 62
     7
370
    15
100
AcDbSpline
210
0.0
220
0.0
230
1.0
 70
     8
 71
     3
 72
    10
 73
     6
 74
     0
 42
0.00000001
 43
0.00000001
 12
1.0
 22
0.0
 32
0.0
 13
1.0
 23
0.0
 33
0.0
 40
0.0
 40
0.0
 40
0.0
 40
0.0
 40
0.5
 40
0.5
 40
1.0
 40
1.0
 40
1.0
 40
1.0
 10
21.83899550106059
 20
49.8763432661509
 30
0.0
 10
21.7223421849376
 20
49.8763432661509
 30
0.0
 10
21.60735833981585
 20
49.86559842046568
 30
0.0
 10
21.38239473411783
 20
49.81190205033412
 30
0.0
 10
21.27766412415704
 20
49.7698832785
 30
0.0
 10
21.1844557910315
 20
49.70887262942704
 30
0.0
  0
SPLINE
  5
51
330
1F
100
AcDbEntity
  8
0
  6
Continuous
 62
     7
370
    15
100
AcDbSpline
210
0.0
220
0.0
230
1.0
 70
     8
 71
     3
 72
    12
 73
     8
 74
     0
 42
0.00000001
 43
0.00000001
 12
1.0
 22
0.0
 32
0.0
 13
1.0
 23
0.0
 33
0.0
 40
0.0
 40
0.0
 40
0.0
 40
0.0
 40
0.2499999999999994
 40
0.2499999999999994
 40
0.4999999999999989
 40
0.4999999999999989
 40
1.0
 40
1.0
 40
1.0
 40
1.0
 10
-31.87285706693662
 20
49.40062280556459
 30
0.0
 10
-31.79772851897218
 20
49.50315375586673
 30
0.0
 10
-31.70981413343842
 20
49.59958715860454
 30
0.0
 10
-31.51891383881313
 20
49.78512907240816
 30
0.0
 10
-31.41522206587226
 20
49.87448117640638
 30
0.0
 10
-31.09048961383444
 20
50.13174690117538
 30
0.0
 10
-30.85999838072912
 20
50.28656353802484
 30
0.0
 10
-30.62131588771297
 20
50.43148831142004
 30
0.0
  0
SPLINE
  5
53
330
1F
100
AcDbEntity
  8
0
  6
Continuous
 62
     7
370
    15
100
AcDbSpline
210
0.0
220
0.0
230
1.0
 70
     8
 71
     3
 72
    28
 73
    24
 74
     0
 42
0.00000001
 43
0.00000001
 12
1.0
 22
0.0
 32
0.0
 13
1.0
 23
0.0
 33
0.0
 40
0.0
 40
0.0
 40
0.0
 40
0.0
 40
0.0625
 40
0.0625
 40
0.1250000000000001
 40
0.1250000000000001
 40
0.2500000000000001
 40
0.2500000000000001
 40
0.3750000000000001
 40
0.3750000000000001
 40
0.5000000000000001
 40
0.5000000000000001
 40
0.6250000000000001
 40
0.6250000000000001
 40
0.6875000000000001
 40
0.6875000000000001
 40
0.7500000000000001
 40
0.7500000000000001
 40
0.8750000000000001
 40
0.8750000000000001
 40
0.9375000000000001
 40
0.9375000000000001
 40
1.0
 40
1.0
 40
1.0
 40
1.0
 10
14.63411585891645
 20
13.35311954037477
 30
0.0
 10
14.14882564804397
 20
12.93107657961292
 30
0.0
 10
13.62824403307651
 20
12.55747344434735
 30
0.0
 10
12.54208139086035
 20
11.87404243661905
 30
0.0
 10
11.97561234990099
 20
11.56529313131496
 30
0.0
 10
10.21823017449177
 20
10.72173159510133
 30
0.0
 10
8.991153060850468
 20
10.27938815824188
 30
0.0
 10
6.473501598964038
 20
9.591811149714305
 30
0.0
 10
5.189538478676925
 20
9.349584576349143
 30
0.0
 10
2.595692467757727
 20
9.035223353432738
 30
0.0
 10
1.288123516406039
 20
8.96252916986291
 30
0.0
 10
-1.325701331183355
 20
8.963967306421763
 30
0.0
 10
-2.632656558276104
 20
9.038189575295648
 30
0.0
 10
-4.574164559135541
 20
9.275791689852062
 30
0.0
 10
-5.21861748776251
 20
9.376300806259316
 30
0.0
 10
-6.501435356700323
 20
9.624715662953072
 30
0.0
 10
-7.135155210592431
 20
9.771781479501946
 30
0.0
 10
-9.004805625908126
 20
10.2846212643174
 30
0.0
 10
-10.21276771209503
 20
10.72065772369066
 30
0.0
 10
-11.95089837001276
 20
11.55267428388006
 30
0.0
 10
-12.51791374584235
 20
11.85983189565932
 30
0.0
 10
-13.6197438785438
 20
12.55115800790643
 30
0.0
 10
-14.14729061289244
 20
12.92974160362247
 30
0.0
 10
-14.63411585891662
 20
13.35311954037563
 30
0.0
  0
SPLINE
  5
56
330
1F
100
AcDbEntity
  8
0
  6
Continuous
 62
     7
370
    15
100
AcDbSpline
210
0.0
220
0.0
230
1.0
 70
     8
 71
     3
 72
    30
 73
    26
 74
     0
 42
0.00000001
 43
0.00000001
 12
1.0
 22
0.0
 32
0.0
 13
1.0
 23
0.0
 33
0.0
 40
0.0
 40
0.0
 40
0.0
 40
0.0
 40
0.0625
 40
0.0625
 40
0.1249999999999999
 40
0.1249999999999999
 40
0.1874999999999999
 40
0.1874999999999999
 40
0.2499999999999999
 40
0.2499999999999999
 40
0.5
 40
0.5
 40
0.625
 40
0.625
 40
0.6875000000000001
 40
0.6875000000000001
 40
0.7500000000000001
 40
0.7500000000000001
 40
0.8125000000000001
 40
0.8125000000000001
 40
0.875
 40
0.875
 40
0.9375
 40
0.9375
 40
1.0
 40
1.0
 40
1.0
 40
1.0
 10
-13.34802632076083
 20
14.51328060671408
 30
0.0
 10
-12.92999701131002
 20
14.04987674226279
 30
0.0
 10
-12.47615617556945
 20
13.63647576174789
 30
0.0
 10
-11.52844042098701
 20
12.86557255227134
 30
0.0
 10
-11.03307344093596
 20
12.51015365711863
 30
0.0
 10
-10.00674260811347
 20
11.84901903446746
 30
0.0
 10
-9.47560560229214
 20
11.54354507694518
 30
0.0
 10
-8.379465565137012
 20
10.97988358385833
 30
0.0
 10
-7.815646568556954
 20
10.72262606263391
 30
0.0
 10
-4.954102827940233
 20
9.570548637962126
 30
0.0
 10
-2.488059867513743
 20
9.053998101537417
 30
0.0
 10
1.222807715878478
 20
9.05109471840241
 30
0.0
 10
2.459332149115435
 20
9.178939663532015
 30
0.0
 10
4.276665309909299
 20
9.543684596719775
 30
0.0
 10
4.877216985227198
 20
9.694005235545244
 30
0.0
 10
6.060643082272161
 20
10.04805365036423
 30
0.0
 10
6.643393352694311
 20
10.25161093419308
 30
0.0
 10
7.790968750105947
 20
10.71179043274639
 30
0.0
 10
8.353163452031932
 20
10.96740095259795
 30
0.0
 10
9.45050251837805
 20
11.52964166856184
 30
0.0
 10
9.98775014497986
 20
11.83742678973595
 30
0.0
 10
11.02592352124809
 20
12.50492166150533
 30
0.0
 10
11.52533935417335
 20
12.86311074268899
 30
0.0
 10
12.47748579933047
 20
13.6374967340387
 30
0.0
 10
12.93173643425274
 20
14.05180496905305
 30
0.0
 10
13.34802632076044
 20
14.51328060671366
 30
0.0
  0
SPLINE
  5
58
330
1F
100
AcDbEntity
  8
0
  6
Continuous
 62
     7
370
    15
100
AcDbSpline
210
0.0
220
0.0
230
1.0
 70
     8
 71
     3
 72
    10
 73
     6
 74
     0
 42
0.00000001
 43
0.00000001
 12
1.0
 22
0.0
 32
0.0
 13
1.0
 23
0.0
 33
0.0
 40
0.0
 40
0.0
 40
0.0
 40
0.0
 40
0.5
 40
0.5
 40
1.0
 40
1.0
 40
1.0
 40
1.0
 10
13.34802632076046
 20
14.51328060671365
 30
0.0
 10
13.91395580147656
 20
15.14063831212262
 30
0.0
 10
14.48079856387612
 20
15.76716177650275
 30
0.0
 10
15.6180632584169
 20
17.01693929747591
 30
0.0
 10
16.18854356506958
 20
17.64014003162377
 30
0.0
 10
16.76693426402701
 20
18.25611498435672
 30
0.0
  0
SPLINE
  5
5A
330
1F
100
AcDbEntity
  8
0
  6
Continuous
 62
     7
370
    15
100
AcDbSpline
210
0.0
220
0.0
230
1.0
 70
     8
 71
     3
 72
    10
 73
     6
 74
     0
 42
0.00000001
 43
0.00000001
 12
1.0
 22
0.0
 32
0.0
 13
1.0
 23
0.0
 33
0.0
 40
0.0
 40
0.0
 40
0.0
 40
0.0
 40
0.4999999999999996
 40
0.4999999999999996
 40
1.0
 40
1.0
 40
1.0
 40
1.0
 10
18.22492854785544
 20
16.88708150473557
 30
0.0
 10
17.65165342781455
 20
16.27655454500631
 30
0.0
 10
17.06824219178316
 20
15.67458746062719
 30
0.0
 10
15.87291393678668
 20
14.49502669186926
 30
0.0
 10
15.26076885591166
 20
13.91725230645354
 30
0.0
 10
14.63411585891233
 20
13.35311954037928
 30
0.0
  0
SPLINE
  5
5B
330
1F
100
AcDbEntity
  8
0
  6
Continuous
 62
     7
370
    15
100
AcDbSpline
210
0.0
220
0.0
230
1.0
 70
     8
 71
     3
 72
    10
 73
     6
 74
     0
 42
0.00000001
 43
0.00000001
 12
1.0
 22
0.0
 32
0.0
 13
1.0
 23
0.0
 33
0.0
 40
0.0
 40
0.0
 40
0.0
 40
0.0
 40
0.5
 40
0.5
 40
1.0
 40
1.0
 40
1.0
 40
1.0
 10
-16.76693426402702
 20
18.25611498435674
 30
0.0
 10
-16.18854356506965
 20
17.64014003162385
 30
0.0
 10
-15.61806325841704
 20
17.01693929747606
 30
0.0
 10
-14.48079856387637
 20
15.76716177650304
 30
0.0
 10
-13.91395580147688
 20
15.14063831212298
 30
0.0
 10
-13.34802632076083
 20
14.51328060671407
 30
0.0
  0
SPLINE
  5
5F
330
1F
100
AcDbEntity
  8
0
  6
Continuous
 62
     7
370
    15
100
AcDbSpline
210
0.0
220
0.0
230
1.0
 70
     8
 71
     3
 72
    10
 73
     6
 74
     0
 42
0.00000001
 43
0.00000001
 12
1.0
 22
0.0
 32
0.0
 13
1.0
 23
0.0
 33
0.0
 40
0.0
 40
0.0
 40
0.0
 40
0.0
 40
0.5
 40
0.5
 40
1.0
 40
1.0
 40
1.0
 40
1.0
 10
-14.63411585891632
 20
13.35311954037587
 30
0.0
 10
-15.2608011789512
 20
13.91728140466516
 30
0.0
 10
-15.87244874213418
 20
14.49458088308531
 30
0.0
 10
-17.06778508680846
 20
15.67412314598894
 30
0.0
 10
-17.6515980783906
 20
16.27649559893599
 30
0.0
 10
-18.22492854785546
 20
16.88708150473558
 30
0.0
  0
SPLINE
  5
60
330
1F
100
AcDbEntity
  8
0
  6
Continuous
 62
     7
370
    15
100
AcDbSpline
210
0.0
220
0.0
230
1.0
 70
     8
 71
     3
 72
    14
 73
    10
 74
     0
 42
0.00000001
 43
0.00000001
 12
1.0
 22
0.0
 32
0.0
 13
1.0
 23
0.0
 33
0.0
 40
0.0
 40
0.0
 40
0.0
 40
0.0
 40
0.25
 40
0.25
 40
0.5
 40
0.5
 40
0.75
 40
0.75
 40
1.0
 40
1.0
 40
1.0
 40
1.0
 10
21.1844557910315
 20
49.70887262942705
 30
0.0
 10
21.01470021517903
 20
49.59775705081707
 30
0.0
 10
20.85398864531833
 20
49.50190922233647
 30
0.0
 10
20.55014681894917
 20
49.33992997792064
 30
0.0
 10
20.41340978237474
 20
49.27733014617819
 30
0.0
 10
20.1740216758006
 20
49.18995365362687
 30
0.0
 10
20.07438909503411
 20
49.16639691577294
 30
0.0
 10
19.92012163769042
 20
49.15988668556943
 30
0.0
 10
19.86562074163959
 20
49.17759063807816
 30
0.0
 10
19.83743499171372
 20
49.21434102909265
 30
0.0
  0
LWPOLYLINE
  5
61
330
1F
100
AcDbEntity
  8
0
  6
Continuous
 62
     7
370
    15
100
AcDbPolyline
 90
        9
 70
   128
 43
0.0
 10
-19.8374349917
 20
49.2143410291
 10
-19.9385174469
 20
49.1226892984
 10
-20.0759034716
 20
49.063013933
 10
-20.2462364727
 20
49.0367729117
 10
-20.4453549019
 20
49.044607351
 10
-20.66839393
 20
49.0863258411
 10
-20.9099043038
 20
49.1609091225
 10
-21.1639854808
 20
49.2665349887
 10
-21.4244297911
 20
49.4006228056
  0
CIRCLE
  5
62
330
1F
100
AcDbEntity
  8
0
  6
Continuous
 62
     7
370
    15
100
AcDbCircle
 10
0.0
 20
34.0
 30
0.0
 40
13.50000000000001
  0
CIRCLE
  5
6E
330
1F
100
AcDbEntity
  8
0
  6
Continuous
 62
     7
370
    15
100
AcDbCircle
 10
0.0
 20
0.0
 30
0.0
 40
61.99999999999997
  0
CIRCLE
  5
6F
330
1F
100
AcDbEntity
  8
0
  6
Continuous
 62
     7
370
    15
100
AcDbCircle
 10
0.0
 20
0.0
 30
0.0
 40
62.37893218813451
  0
CIRCLE
  5
70
330
1F
100
AcDbEntity
  8
0
  6
Continuous
 62
     7
370
    15
100
AcDbCircle
 10
0.0
 20
0.0
 30
0.0
 40
65.91446609406717
  0
CIRCLE
  5
71
330
1F
100
AcDbEntity
  8
0
  6
Continuous
 62
     7
370
    15
100
AcDbCircle
 10
0.0
 20
0.0
 30
0.0
 40
68.53553390593274
  0
CIRCLE
  5
72
330
1F
100
AcDbEntity
  8
0
  6
Continuous
 62
     7
370
    15
100
AcDbCircle
 10
0.0
 20
0.0
 30
0.0
 40
70.00000000000003
  0
LINE
  5
96
330
1F
100
AcDbEntity
  8
0
  6
Continuous
 62
     7
370
    15
100
AcDbLine
 10
17.9
 20
67.6891989872
 30
0.0
 11
17.9
 21
95.0
 31
0.0
  0
LINE
  5
97
330
1F
100
AcDbEntity
  8
0
  6
Continuous
 62
     7
370
    15
100
AcDbLine
 10
-17.9
 20
95.0
 30
0.0
 11
-17.9
 21
67.6841472539
 31
0.0
  0
LINE
  5
98
330
1F
100
AcDbEntity
  8
0
  6
Continuous
 62
     7
370
    15
100
AcDbLine
 10
-21.4244297911
 20
49.4006228056
 30
0.0
 11
-31.8728570669
 21
49.4006228056
 31
0.0
  0
LINE
  5
99
330
1F
100
AcDbEntity
  8
0
  6
Continuous
 62
     7
370
    15
100
AcDbLine
 10
31.5174615475
 20
49.8763432662
 30
0.0
 11
21.8389955011
 21
49.8763432662
 31
0.0
  0
LINE
  5
9A
330
1F
100
AcDbEntity
  8
0
  6
Continuous
 62
     7
370
    15
100
AcDbLine
 10
-14.6341158589
 20
13.3531195404
 30
0.0
 11
-13.3480263208
 21
14.5132806067
 31
0.0
  0
LINE
  5
9B
330
1F
100
AcDbEntity
  8
0
  6
Continuous
 62
     7
370
    15
100
AcDbLine
 10
14.6341158589
 20
13.3531195404
 30
0.0
 11
13.3480263208
 21
14.5132806067
 31
0.0
  0
LINE
  5
9C
330
1F
100
AcDbEntity
  8
0
  6
Continuous
 62
     7
370
    15
100
AcDbLine
 10
16.766934264
 20
18.2561149844
 30
0.0
 11
18.2249285479
 21
16.8870815047
 31
0.0
  0
LINE
  5
9D
330
1F
100
AcDbEntity
  8
0
  6
Continuous
 62
     7
370
    15
100
AcDbLine
 10
-16.766934264
 20
18.2561149844
 30
0.0
 11
-18.2249285479
 21
16.8870815047
 31
0.0
  0
LINE
  5
9E
330
1F
100
AcDbEntity
  8
0
  6
Continuous
 62
     7
370
    15
100
AcDbLine
 10
13.3465908714
 20
57.4705882353
 30
0.0
 11
12.3579545106
 21
55.7320261438
 31
0.0
  0
LINE
  5
9F
330
1F
100
AcDbEntity
  8
0
  6
Continuous
 62
     7
370
    15
100
AcDbLine
 10
-12.3579545106
 20
55.7320261438
 30
0.0
 11
-13.3465908714
 21
57.4705882353
 31
0.0
  0
LINE
  5
A0
330
1F
100
AcDbEntity
  8
0
  6
Continuous
 62
     7
370
    15
100
AcDbLine
 10
-21.4244297911
 20
50.4314883114
 30
0.0
 11
-21.4244297911
 21
49.4006228056
 31
0.0
  0
LINE
  5
A1
330
1F
100
AcDbEntity
  8
0
  6
Continuous
 62
     7
370
    15
100
AcDbLine
 10
-19.8374349917
 20
49.2143410291
 30
0.0
 11
-21.4244297911
 21
50.4314883114
 31
0.0
  0
LINE
  5
A2
330
1F
100
AcDbEntity
  8
0
  6
Continuous
 62
     7
370
    15
100
AcDbLine
 10
-30.6213158877
 20
50.4314883114
 30
0.0
 11
-21.4244297911
 21
50.4314883114
 31
0.0
  0
LINE
  5
A3
330
1F
100
AcDbEntity
  8
0
  6
Continuous
 62
     7
370
    15
100
AcDbLine
 10
17.9
 20
95.0
 30
0.0
 11
-17.9
 21
95.0
 31
0.0
  0
LINE
  5
A4
330
1F
100
AcDbEntity
  8
0
  6
Continuous
 62
     7
370
    15
100
AcDbLine
 10
70.0
 20
60.0
 30
0.0
 11
60.0
 21
70.0
 31
0.0
  0
LINE
  5
A5
330
1F
100
AcDbEntity
  8
0
  6
Continuous
 62
     7
370
    15
100
AcDbLine
 10
-60.0
 20
70.0
 30
0.0
 11
-70.0
 21
60.0
 31
0.0
  0
LINE
  5
A6
330
1F
100
AcDbEntity
  8
0
  6
Continuous
 62
     7
370
    15
100
AcDbLine
 10
60.0
 20
-70.0
 30
0.0
 11
70.0
 21
-60.0
 31
0.0
  0
LINE
  5
A7
330
1F
100
AcDbEntity
  8
0
  6
Continuous
 62
     7
370
    15
100
AcDbLine
 10
-70.0
 20
-60.0
 30
0.0
 11
-60.0
 21
-70.0
 31
0.0
  0
LINE
  5
A8
330
1F
100
AcDbEntity
  8
0
  6
Continuous
 62
     7
370
    15
100
AcDbLine
 10
-73.0
 20
-82.0
 30
0.0
 11
-68.5
 21
-61.5
 31
0.0
  0
LINE
  5
A9
330
1F
100
AcDbEntity
  8
0
  6
Continuous
 62
     7
370
    15
100
AcDbLine
 10
-44.0
 20
-82.0
 30
0.0
 11
-73.0
 21
-82.0
 31
0.0
  0
LINE
  5
AA
330
1F
100
AcDbEntity
  8
0
  6
Continuous
 62
     7
370
    15
100
AcDbLine
 10
-40.0
 20
-75.9124440314
 30
0.0
 11
-44.0
 21
-82.0
 31
0.0
  0
LINE
  5
AB
330
1F
100
AcDbEntity
  8
0
  6
Continuous
 62
     7
370
    15
100
AcDbLine
 10
44.0
 20
-82.0
 30
0.0
 11
40.0
 21
-75.9124440314
 31
0.0
  0
LINE
  5
AC
330
1F
100
AcDbEntity
  8
0
  6
Continuous
 62
     7
370
    15
100
AcDbLine
 10
68.5
 20
-61.5
 30
0.0
 11
73.0
 21
-82.0
 31
0.0
  0
LINE
  5
AD
330
1F
100
AcDbEntity
  8
0
  6
Continuous
 62
     7
370
    15
100
AcDbLine
 10
73.0
 20
-82.0
 30
0.0
 11
44.0
 21
-82.0
 31
0.0
  0
LINE
  5
AE
330
1F
100
AcDbEntity
  8
0
  6
Continuous
 62
     7
370
    15
100
AcDbLine
 10
39.84
 20
100.3
 30
0.0
 11
-39.84
 21
100.3
 31
0.0
  0
LINE
  5
AF
330
1F
100
AcDbEntity
  8
0
  6
Continuous
 62
     7
370
    15
100
AcDbLine
 10
-25.25
 20
110.0
 30
0.0
 11
-39.84
 21
100.3
 31
0.0
  0
LINE
  5
B0
330
1F
100
AcDbEntity
  8
0
  6
Continuous
 62
     7
370
    15
100
AcDbLine
 10
25.25
 20
110.0
 30
0.0
 11
-25.25
 21
110.0
 31
0.0
  0
LINE
  5
B1
330
1F
100
AcDbEntity
  8
0
  6
Continuous
 62
     7
370
    15
100
AcDbLine
 10
39.84
 20
100.3
 30
0.0
 11
25.25
 21
110.0
 31
0.0
  0
LINE
  5
B2
330
1F
100
AcDbEntity
  8
0
  6
Continuous
 62
     7
370
    15
100
AcDbLine
 10
-39.84
 20
92.0
 30
0.0
 11
-17.9
 21
92.0
 31
0.0
  0
LINE
  5
B3
330
1F
100
AcDbEntity
  8
0
  6
Continuous
 62
     7
370
    15
100
AcDbLine
 10
17.9
 20
92.0
 30
0.0
 11
39.84
 21
92.0
 31
0.0
  0
LINE
  5
B4
330
1F
100
AcDbEntity
  8
0
  6
Continuous
 62
     7
370
    15
100
AcDbLine
 10
-39.84
 20
100.3
 30
0.0
 11
-39.84
 21
92.0
 31
0.0
  0
LINE
  5
B5
330
1F
100
AcDbEntity
  8
0
  6
Continuous
 62
     7
370
    15
100
AcDbLine
 10
39.84
 20
100.3
 30
0.0
 11
39.84
 21
92.0
 31
0.0
  0
LINE
  5
B6
330
1F
100
AcDbEntity
  8
0
  6
Continuous
 62
     7
370
    15
100
AcDbLine
 10
-37.2
 20
76.5393419506
 30
0.0
 11
-37.2
 21
92.0
 31
0.0
  0
LINE
  5
B7
330
1F
100
AcDbEntity
  8
0
  6
Continuous
 62
     7
370
    15
100
AcDbLine
 10
37.2
 20
92.0
 30
0.0
 11
37.2
 21
76.5393419506
 31
0.0
  0
ARC
  5
B8
330
1F
100
AcDbEntity
  8
0
  6
Continuous
 62
     7
370
    15
100
AcDbCircle
 10
0.0
 20
32.9691344941
 30
0.0
 40
27.0
100
AcDbArc
 50
142.5135607599
 51
233.8687303415
  0
ARC
  5
B9
330
1F
100
AcDbEntity
  8
0
  6
Continuous
 62
     7
370
    15
100
AcDbCircle
 10
0.0
 20
32.9691344941
 30
0.0
 40
27.0
100
AcDbArc
 50
306.1312696585
 51
38.3154262272
  0
ARC
  5
BA
330
1F
100
AcDbEntity
  8
0
  6
Continuous
 62
     7
370
    15
100
AcDbCircle
 10
-19.1162859263
 20
14.5110973549
 30
0.0
 40
4.629337007772849
100
AcDbArc
 50
313.6615455928
 51
345.514261277
  0
ARC
  5
BB
330
1F
100
AcDbEntity
  8
0
  6
Continuous
 62
     7
370
    15
100
AcDbCircle
 10
19.1162859262
 20
14.5110973549
 30
0.0
 40
4.629337007759671
100
AcDbArc
 50
194.485738723
 51
226.3384544072
  0
ARC
  5
BC
330
1F
100
AcDbEntity
  8
0
  6
Continuous
 62
     7
370
    15
100
AcDbCircle
 10
0.0
 20
34.0
 30
0.0
 40
22.99999999999999
100
AcDbArc
 50
316.8023866821
 51
223.1976133179
  0
ARC
  5
BD
330
1F
100
AcDbEntity
  8
0
  6
Continuous
 62
     7
370
    15
100
AcDbCircle
 10
0.0
 20
34.0
 30
0.0
 40
25.0
100
AcDbArc
 50
316.8023866821
 51
223.1976133179
  0
ARC
  5
BE
330
1F
100
AcDbEntity
  8
0
  6
Continuous
 62
     7
370
    15
100
AcDbCircle
 10
0.0
 20
0.0
 30
0.0
 40
59.00000000000004
100
AcDbArc
 50
76.9257590266
 51
57.7107151626
  0
ARC
  5
BF
330
1F
100
AcDbEntity
  8
0
  6
Continuous
 62
     7
370
    15
100
AcDbCircle
 10
0.0
 20
34.0
 30
0.0
 40
27.00000000000033
100
AcDbArc
 50
36.0161107892
 51
60.3751995717
  0
ARC
  5
C0
330
1F
100
AcDbEntity
  8
0
  6
Continuous
 62
     7
370
    15
100
AcDbCircle
 10
0.0
 20
34.0
 30
0.0
 40
26.99999999999978
100
AcDbArc
 50
119.6248004283
 51
142.5135607599
  0
ARC
  5
C1
330
1F
100
AcDbEntity
  8
0
  6
Continuous
 62
     7
370
    15
100
AcDbCircle
 10
0.0
 20
0.0
 30
0.0
 40
72.60000000000001
100
AcDbArc
 50
104.2738351656
 51
75.7261648344
  0
ARC
  5
C2
330
1F
100
AcDbEntity
  8
0
  6
Continuous
 62
     7
370
    15
100
AcDbCircle
 10
0.0
 20
0.0
 30
0.0
 40
76.60000000000005
100
AcDbArc
 50
103.5139122256
 51
76.4860877744
  0
ARC
  5
C3
330
1F
100
AcDbEntity
  8
0
  6
Continuous
 62
     7
370
    15
100
AcDbCircle
 10
-96.1785714286
 20
0.0
 30
0.0
 40
176.6785714285708
100
AcDbArc
 50
340.1475089867
 51
19.8524910133
  0
ARC
  5
C4
330
1F
100
AcDbEntity
  8
0
  6
Continuous
 62
     7
370
    15
100
AcDbCircle
 10
0.0
 20
96.1785714286
 30
0.0
 40
176.6785714285709
100
AcDbArc
 50
250.1475089867
 51
289.8524910133
  0
ARC
  5
C5
330
1F
100
AcDbEntity
  8
0
  6
Continuous
 62
     7
370
    15
100
AcDbCircle
 10
96.1785714286
 20
0.0
 30
0.0
 40
176.6785714285709
100
AcDbArc
 50
160.1475089867
 51
199.8524910133
  0
ARC
  5
C6
330
1F
100
AcDbEntity
  8
0
  6
Continuous
 62
     7
370
    15
100
AcDbCircle
 10
0.0
 20
-96.1785714286
 30
0.0
 40
176.6785714285665
100
AcDbArc
 50
70.1475089867
 51
84.1851627118
  0
ARC
  5
C7
330
1F
100
AcDbEntity
  8
0
  6
Continuous
 62
     7
370
    15
100
AcDbCircle
 10
0.0
 20
-96.1785714286
 30
0.0
 40
176.6785714285691
100
AcDbArc
 50
95.8148372882
 51
109.8524910133
  0
ARC
  5
C8
330
1F
100
AcDbEntity
  8
0
  6
Continuous
 62
     8
370
    15
100
AcDbCircle
 10
0.0
 20
0.0
 30
0.0
 40
70.8786796564404
100
AcDbArc
 50
104.6281165182
 51
75.3718834818
  0
ARC
  5
C9
330
1F
100
AcDbEntity
  8
0
  6
Continuous
 62
     8
370
    15
100
AcDbCircle
 10
0.0
 20
0.0
 30
0.0
 40
71.72132034355963
100
AcDbArc
 50
104.4524892717
 51
75.5475107283
  0
ARC
  5
CA
330
1F
100
AcDbEntity
  8
0
  6
Continuous
 62
     8
370
    15
100
AcDbCircle
 10
0.0
 20
0.0
 30
0.0
 40
74.0644660940673
100
AcDbArc
 50
103.9857961449
 51
76.0142038551
  0
ARC
  5
CB
330
1F
100
AcDbEntity
  8
0
  6
Continuous
 62
     8
370
    15
100
AcDbCircle
 10
0.0
 20
0.0
 30
0.0
 40
75.13553390593292
100
AcDbArc
 50
103.782459606
 51
76.217540394
  0
ENDSEC
  0
SECTION
  2
OBJECTS
  0
DICTIONARY
  5
C
330
0
100
AcDbDictionary
281
     1
  3
ACAD_GROUP
350
D
  3
ACAD_LAYOUT
350
1A
  3
ACAD_MLINESTYLE
350
17
  3
ACAD_PLOTSETTINGS
350
19
  3
ACAD_PLOTSTYLENAME
350
E
  0
DICTIONARY
  5
D
102
{ACAD_REACTORS
330
C
102
}
330
C
100
AcDbDictionary
281
     1
  0
DICTIONARY
  5
1A
102
{ACAD_REACTORS
330
C
102
}
330
C
100
AcDbDictionary
281
     1
  3
Layout1
350
1E
  3
Layout2
350
26
  3
Model
350
22
  0
DICTIONARY
  5
17
102
{ACAD_REACTORS
330
C
102
}
330
C
100
AcDbDictionary
281
     1
  3
Standard
350
18
  0
DICTIONARY
  5
19
102
{ACAD_REACTORS
330
C
102
}
330
C
100
AcDbDictionary
281
     1
  0
ACDBDICTIONARYWDFLT
  5
E
102
{ACAD_REACTORS
330
C
102
}
330
C
100
AcDbDictionary
281
     1
  3
Normal
350
F
100
AcDbDictionaryWithDefault
340
F
  0
LAYOUT
  5
1E
102
{ACAD_REACTORS
330
1A
102
}
330
1A
100
AcDbPlotSettings
  1

  2
none_device
  4

  6

 40
0.0
 41
0.0
 42
0.0
 43
0.0
 44
0.0
 45
0.0
 46
0.0
 47
0.0
 48
0.0
 49
0.0
140
0.0
141
0.0
142
1.0
143
1.0
 70
   688
 72
     0
 73
     0
 74
     5
  7

 75
    16
147
1.0
148
0.0
149
0.0
100
AcDbLayout
  1
Layout1
 70
     1
 71
     1
 10
0.0
 20
0.0
 11
420.0
 21
297.0
 12
0.0
 22
0.0
 32
0.0
 14
1.0000000000E+20
 24
1.0000000000E+20
 34
1.0000000000E+20
 15
-1.0000000000E+20
 25
-1.0000000000E+20
 35
-1.0000000000E+20
146
0.0
 13
0.0
 23
0.0
 33
0.0
 16
1.0
 26
0.0
 36
0.0
 17
0.0
 27
1.0
 37
0.0
 76
     0
330
1B
  0
LAYOUT
  5
26
102
{ACAD_REACTORS
330
1A
102
}
330
1A
100
AcDbPlotSettings
  1

  2
none_device
  4

  6

 40
0.0
 41
0.0
 42
0.0
 43
0.0
 44
0.0
 45
0.0
 46
0.0
 47
0.0
 48
0.0
 49
0.0
140
0.0
141
0.0
142
1.0
143
1.0
 70
   688
 72
     0
 73
     0
 74
     5
  7

 75
    16
147
1.0
148
0.0
149
0.0
100
AcDbLayout
  1
Layout2
 70
     1
 71
     2
 10
0.0
 20
0.0
 11
0.0
 21
0.0
 12
0.0
 22
0.0
 32
0.0
 14
0.0
 24
0.0
 34
0.0
 15
0.0
 25
0.0
 35
0.0
146
0.0
 13
0.0
 23
0.0
 33
0.0
 16
1.0
 26
0.0
 36
0.0
 17
0.0
 27
1.0
 37
0.0
 76
     0
330
23
  0
LAYOUT
  5
22
102
{ACAD_REACTORS
330
1A
102
}
330
1A
100
AcDbPlotSettings
  1

  2
none_device
  4
ANSI_A_(11.00_x_8.50_Inches)
  6

 40
6.35
 41
19.05
 42
6.35000508
 43
19.05000254
 44
279.4
 45
215.9
 46
133.34999746
 47
73.31471748
 48
0.0
 49
0.0
140
0.0
141
0.0
142
0.043828125
143
1.0
 70
  1696
 72
     0
 73
     0
 74
     0
  7

 75
     0
147
0.0179189148
148
0.0
149
0.0
100
AcDbLayout
  1
Model
 70
     1
 71
     0
 10
0.0
 20
0.0
 11
420.0
 21
297.0
 12
0.0
 22
0.0
 32
0.0
 14
-80.5
 24
-82.0
 34
0.0
 15
80.5
 25
110.0
 35
0.0
146
0.0
 13
0.0
 23
0.0
 33
0.0
 16
1.0
 26
0.0
 36
0.0
 17
0.0
 27
1.0
 37
0.0
 76
     0
330
1F
331
29
  0
MLINESTYLE
  5
18
102
{ACAD_REACTORS
330
17
102
}
330
17
100
AcDbMlineStyle
  2
Standard
 70
     0
  3

 62
   256
 51
90.0
 52
90.0
 71
     2
 49
0.5
 62
   256
  6
BYLAYER
 49
-0.5
 62
   256
  6
BYLAYER
  0
ACDBPLACEHOLDER
  5
F
102
{ACAD_REACTORS
330
E
102
}
330
E
  0
ENDSEC
  0
EOF
