  0
SECTION
  2
HEADER
  9
$ACADVER
  1
AC1015
  9
$ACADMAINTVER
 70
     6
  9
$DWGCODEPAGE
  3
ANSI_1252
  9
$INSBASE
 10
0.0
 20
0.0
 30
0.0
  9
$EXTMIN
 10
-177.5
 20
-82.0
 30
0.0
  9
$EXTMAX
 10
185.0
 20
110.0
 30
0.0
  9
$LIMMIN
 10
0.0
 20
0.0
  9
$LIMMAX
 10
420.0
 20
297.0
  9
$ORTHOMODE
 70
     0
  9
$REGENMODE
 70
     1
  9
$FILLMODE
 70
     1
  9
$QTEXTMODE
 70
     0
  9
$MIRRTEXT
 70
     1
  9
$LTSCALE
 40
1.0
  9
$ATTMODE
 70
     1
  9
$TEXTSIZE
 40
3.5
  9
$TRACEWID
 40
1.0
  9
$TEXTSTYLE
  7
Standard
  9
$CLAYER
  8
0
  9
$CELTYPE
  6
ByLayer
  9
$CECOLOR
 62
   256
  9
$CELTSCALE
 40
1.0
  9
$DISPSILH
 70
     0
  9
$DIMSCALE
 40
1.0
  9
$DIMASZ
 40
4.7625
  9
$DIMEXO
 40
1.27
  9
$DIMDLI
 40
3.75
  9
$DIMRND
 40
0.0
  9
$DIMDLE
 40
0.0
  9
$DIMEXE
 40
3.175
  9
$DIMTP
 40
0.0
  9
$DIMTM
 40
0.0
  9
$DIMTXT
 40
3.5
  9
$DIMCEN
 40
2.5
  9
$DIMTSZ
 40
0.0
  9
$DIMTOL
 70
     0
  9
$DIMLIM
 70
     0
  9
$DIMTIH
 70
     1
  9
$DIMTOH
 70
     1
  9
$DIMSE1
 70
     0
  9
$DIMSE2
 70
     0
  9
$DIMTAD
 70
     0
  9
$DIMZIN
 70
     0
  9
$DIMBLK
  1

  9
$DIMASO
 70
     1
  9
$DIMSHO
 70
     1
  9
$DIMPOST
  1

  9
$DIMAPOST
  1

  9
$DIMALT
 70
     0
  9
$DIMALTD
 70
     3
  9
$DIMALTF
 40
0.0393700787
  9
$DIMLFAC
 40
1.0
  9
$DIMTOFL
 70
     1
  9
$DIMTVP
 40
0.0
  9
$DIMTIX
 70
     0
  9
$DIMSOXD
 70
     0
  9
$DIMSAH
 70
     0
  9
$DIMBLK1
  1

  9
$DIMBLK2
  1

  9
$DIMSTYLE
  2
ISO-25
  9
$DIMCLRD
 70
     0
  9
$DIMCLRE
 70
     0
  9
$DIMCLRT
 70
     0
  9
$DIMTFAC
 40
1.0
  9
$DIMGAP
 40
1.524
  9
$DIMJUST
 70
     0
  9
$DIMSD1
 70
     0
  9
$DIMSD2
 70
     0
  9
$DIMTOLJ
 70
     0
  9
$DIMTZIN
 70
     0
  9
$DIMALTZ
 70
     0
  9
$DIMALTTZ
 70
     0
  9
$DIMUPT
 70
     0
  9
$DIMDEC
 70
     4
  9
$DIMTDEC
 70
     3
  9
$DIMALTU
 70
     2
  9
$DIMALTTD
 70
     3
  9
$DIMTXSTY
  7
Standard
  9
$DIMAUNIT
 70
     0
  9
$DIMADEC
 70
     2
  9
$DIMALTRND
 40
0.0
  9
$DIMAZIN
 70
     0
  9
$DIMDSEP
 70
    44
  9
$DIMATFIT
 70
     3
  9
$DIMFRAC
 70
     0
  9
$DIMLDRBLK
  1

  9
$DIMLUNIT
 70
     2
  9
$DIMLWD
 70
    -2
  9
$DIMLWE
 70
    -2
  9
$DIMTMOVE
 70
     0
  9
$LUNITS
 70
     2
  9
$LUPREC
 70
     4
  9
$SKETCHINC
 40
1.0
  9
$FILLETRAD
 40
10.0
  9
$AUNITS
 70
     0
  9
$AUPREC
 70
     2
  9
$MENU
  1
.
  9
$ELEVATION
 40
0.0
  9
$PELEVATION
 40
0.0
  9
$THICKNESS
 40
0.0
  9
$LIMCHECK
 70
     0
  9
$CHAMFERA
 40
10.0
  9
$CHAMFERB
 40
10.0
  9
$CHAMFERC
 40
20.0
  9
$CHAMFERD
 40
0.0
  9
$SKPOLY
 70
     0
  9
$TDCREATE
 40
2459460.494686319
  9
$TDUCREATE
 40
2459460.703019653
  9
$TDUPDATE
 40
2459460.494723773
  9
$TDUUPDATE
 40
2459460.703057107
  9
$TDINDWG
 40
0.0000000116
  9
$TDUSRTIMER
 40
0.0000000116
  9
$USRTIMER
 70
     1
  9
$ANGBASE
 50
0.0
  9
$ANGDIR
 70
     0
  9
$PDMODE
 70
     0
  9
$PDSIZE
 40
-1.0
  9
$PLINEWID
 40
0.0
  9
$SPLFRAME
 70
     0
  9
$SPLINETYPE
 70
     6
  9
$SPLINESEGS
 70
     8
  9
$HANDSEED
  5
161
  9
$SURFTAB1
 70
     6
  9
$SURFTAB2
 70
     6
  9
$SURFTYPE
 70
     6
  9
$SURFU
 70
     6
  9
$SURFV
 70
     6
  9
$UCSBASE
  2

  9
$UCSNAME
  2

  9
$UCSORG
 10
0.0
 20
0.0
 30
0.0
  9
$UCSXDIR
 10
1.0
 20
0.0
 30
0.0
  9
$UCSYDIR
 10
0.0
 20
1.0
 30
0.0
  9
$UCSORTHOREF
  2

  9
$UCSORTHOVIEW
 70
     0
  9
$UCSORGTOP
 10
0.0
 20
0.0
 30
0.0
  9
$UCSORGBOTTOM
 10
0.0
 20
0.0
 30
0.0
  9
$UCSORGLEFT
 10
0.0
 20
0.0
 30
0.0
  9
$UCSORGRIGHT
 10
0.0
 20
0.0
 30
0.0
  9
$UCSORGFRONT
 10
0.0
 20
0.0
 30
0.0
  9
$UCSORGBACK
 10
0.0
 20
0.0
 30
0.0
  9
$PUCSBASE
  2

  9
$PUCSNAME
  2

  9
$PUCSORG
 10
0.0
 20
0.0
 30
0.0
  9
$PUCSXDIR
 10
1.0
 20
0.0
 30
0.0
  9
$PUCSYDIR
 10
0.0
 20
1.0
 30
0.0
  9
$PUCSORTHOREF
  2

  9
$PUCSORTHOVIEW
 70
     0
  9
$PUCSORGTOP
 10
0.0
 20
0.0
 30
0.0
  9
$PUCSORGBOTTOM
 10
0.0
 20
0.0
 30
0.0
  9
$PUCSORGLEFT
 10
0.0
 20
0.0
 30
0.0
  9
$PUCSORGRIGHT
 10
0.0
 20
0.0
 30
0.0
  9
$PUCSORGFRONT
 10
0.0
 20
0.0
 30
0.0
  9
$PUCSORGBACK
 10
0.0
 20
0.0
 30
0.0
  9
$USERI1
 70
     0
  9
$USERI2
 70
     0
  9
$USERI3
 70
     0
  9
$USERI4
 70
     0
  9
$USERI5
 70
     0
  9
$USERR1
 40
0.0
  9
$USERR2
 40
0.0
  9
$USERR3
 40
0.0
  9
$USERR4
 40
0.0
  9
$USERR5
 40
0.0
  9
$WORLDVIEW
 70
     1
  9
$SHADEDGE
 70
     3
  9
$SHADEDIF
 70
    70
  9
$TILEMODE
 70
     1
  9
$MAXACTVP
 70
    64
  9
$PINSBASE
 10
0.0
 20
0.0
 30
0.0
  9
$PLIMCHECK
 70
     0
  9
$PEXTMIN
 10
1.0000000000E+20
 20
1.0000000000E+20
 30
1.0000000000E+20
  9
$PEXTMAX
 10
-1.0000000000E+20
 20
-1.0000000000E+20
 30
-1.0000000000E+20
  9
$PLIMMIN
 10
0.0
 20
0.0
  9
$PLIMMAX
 10
420.0
 20
297.0
  9
$UNITMODE
 70
     0
  9
$VISRETAIN
 70
     1
  9
$PLINEGEN
 70
     0
  9
$PSLTSCALE
 70
     1
  9
$TREEDEPTH
 70
  3020
  9
$CMLSTYLE
  2
Standard
  9
$CMLJUST
 70
     0
  9
$CMLSCALE
 40
20.0
  9
$PROXYGRAPHICS
 70
     1
  9
$MEASUREMENT
 70
     1
  9
$CELWEIGHT
370
    -1
  9
$ENDCAPS
280
     0
  9
$JOINSTYLE
280
     0
  9
$LWDISPLAY
290
     1
  9
$INSUNITS
 70
     4
  9
$HYPERLINKBASE
  1

  9
$STYLESHEET
  1

  9
$XEDIT
290
     1
  9
$CEPSNTYPE
380
     0
  9
$PSTYLEMODE
290
     1
  9
$FINGERPRINTGUID
  2
{2571A244-0579-46FA-8ECB-7993BF96BFEF}
  9
$VERSIONGUID
  2
{FAEB1C32-E019-11D5-929B-00C0DF256EC4}
  9
$EXTNAMES
290
     1
  9
$PSVPSCALE
 40
0.0
  9
$OLESTARTUP
290
     0
  0
ENDSEC
  0
SECTION
  2
CLASSES
  0
CLASS
  1
ACDBDICTIONARYWDFLT
  2
AcDbDictionaryWithDefault
  3
ObjectDBX Classes
 90
        0
280
     0
281
     0
  0
CLASS
  1
VISUALSTYLE
  2
AcDbVisualStyle
  3
ObjectDBX Classes
 90
     4095
280
     0
281
     0
  0
CLASS
  1
MATERIAL
  2
AcDbMaterial
  3
ObjectDBX Classes
 90
     1153
280
     0
281
     0
  0
CLASS
  1
ACDBPLACEHOLDER
  2
AcDbPlaceHolder
  3
ObjectDBX Classes
 90
        0
280
     0
281
     0
  0
CLASS
  1
LAYOUT
  2
AcDbLayout
  3
ObjectDBX Classes
 90
        0
280
     0
281
     0
  0
ENDSEC
  0
SECTION
  2
TABLES
  0
TABLE
  2
VPORT
  5
8
330
0
100
AcDbSymbolTable
 70
     1
  0
VPORT
  5
29
330
8
100
AcDbSymbolTableRecord
100
AcDbViewportTableRecord
  2
*Active
 70
     0
 10
0.0
 20
0.0
 11
1.0
 21
1.0
 12
3.75
 22
14.0
 13
0.0
 23
0.0
 14
10.0
 24
10.0
 15
10.0
 25
10.0
 16
0.0
 26
0.0
 36
1.0
 17
0.0
 27
0.0
 37
0.0
 40
195.84
 41
1.8880208333
 42
50.0
 43
0.0
 44
0.0
 50
0.0
 51
0.0
 71
     0
 72
   100
 73
     1
 74
     3
 75
     0
 76
     0
 77
     0
 78
     0
281
     0
 65
     1
110
0.0
120
0.0
130
0.0
111
1.0
121
0.0
131
0.0
112
0.0
122
1.0
132
0.0
 79
     0
146
0.0
  0
ENDTAB
  0
TABLE
  2
LTYPE
  5
5
330
0
100
AcDbSymbolTable
 70
     6
  0
LTYPE
  5
14
330
5
100
AcDbSymbolTableRecord
100
AcDbLinetypeTableRecord
  2
ByBlock
 70
     0
  3

 72
    65
 73
     0
 40
0.0
  0
LTYPE
  5
15
330
5
100
AcDbSymbolTableRecord
100
AcDbLinetypeTableRecord
  2
ByLayer
 70
     0
  3

 72
    65
 73
     0
 40
0.0
  0
LTYPE
  5
16
330
5
100
AcDbSymbolTableRecord
100
AcDbLinetypeTableRecord
  2
Continuous
 70
     0
  3
Solid line
 72
    65
 73
     0
 40
0.0
  0
LTYPE
  5
3F
330
5
100
AcDbSymbolTableRecord
100
AcDbLinetypeTableRecord
  2
HIDDEN
 70
     0
  3
Hidden __ __ __ __ __ __ __ __ __ __ __ __ __ __
 72
    65
 73
     2
 40
1.905
 49
1.27
 74
     0
 49
-0.635
 74
     0
  0
LTYPE
  5
40
330
5
100
AcDbSymbolTableRecord
100
AcDbLinetypeTableRecord
  2
PHANTOM
 70
     0
  3
Phantom ______  __  __  ______  __  __  ______
 72
    65
 73
     6
 40
12.7
 49
6.35
 74
     0
 49
-1.27
 74
     0
 49
1.27
 74
     0
 49
-1.27
 74
     0
 49
1.27
 74
     0
 49
-1.27
 74
     0
  0
LTYPE
  5
41
330
5
100
AcDbSymbolTableRecord
100
AcDbLinetypeTableRecord
  2
CENTER
 70
     0
  3
Center ____ _ ____ _ ____ _ ____ _ ____ _ ____
 72
    65
 73
     4
 40
10.16
 49
6.35
 74
     0
 49
-1.27
 74
     0
 49
1.27
 74
     0
 49
-1.27
 74
     0
  0
LTYPE
  5
42
330
5
100
AcDbSymbolTableRecord
100
AcDbLinetypeTableRecord
  2
CENTERX2
 70
     0
  3
Center (2x) ________  __  ________  __  _____
 72
    65
 73
     4
 40
20.32
 49
12.7
 74
     0
 49
-2.54
 74
     0
 49
2.54
 74
     0
 49
-2.54
 74
     0
  0
LTYPE
  5
43
330
5
100
AcDbSymbolTableRecord
100
AcDbLinetypeTableRecord
  2
DOT2
 70
     0
  3
Dot (.5x) ........................................
 72
    65
 73
     2
 40
0.635
 49
0.0
 74
     0
 49
-0.635
 74
     0
  0
ENDTAB
  0
TABLE
  2
LAYER
  5
2
330
0
100
AcDbSymbolTable
 70
     1
  0
LAYER
  5
10
330
2
100
AcDbSymbolTableRecord
100
AcDbLayerTableRecord
  2
0
 70
     0
 62
     7
  6
Continuous
370
    -3
390
F
  0
ENDTAB
  0
TABLE
  2
STYLE
  5
3
330
0
100
AcDbSymbolTable
 70
     1
  0
STYLE
  5
11
330
3
100
AcDbSymbolTableRecord
100
AcDbTextStyleTableRecord
  2
Standard
 70
     0
 40
0.0
 41
1.0
 50
0.0
 71
     0
 42
3.5
  3
txt
  4

  0
ENDTAB
  0
TABLE
  2
VIEW
  5
6
330
0
100
AcDbSymbolTable
 70
     0
  0
ENDTAB
  0
TABLE
  2
UCS
  5
7
330
0
100
AcDbSymbolTable
 70
     0
  0
ENDTAB
  0
TABLE
  2
APPID
  5
9
330
0
100
AcDbSymbolTable
 70
     1
  0
APPID
  5
12
330
9
100
AcDbSymbolTableRecord
100
AcDbRegAppTableRecord
  2
ACAD
 70
     0
  0
ENDTAB
  0
TABLE
  2
DIMSTYLE
  5
A
330
0
100
AcDbSymbolTable
 70
     1
100
AcDbDimStyleTable
  0
DIMSTYLE
105
27
330
A
100
AcDbSymbolTableRecord
100
AcDbDimStyleTableRecord
  2
ISO-25
 70
     0
 41
2.5
 42
0.625
 43
3.75
 44
1.25
 73
     0
 74
     0
 77
     1
 78
     8
140
2.5
141
2.5
143
0.0393700787
147
0.625
171
     3
172
     1
178
     0
271
     2
272
     2
274
     3
278
    44
283
     0
284
     8
340
11
  0
ENDTAB
  0
TABLE
  2
BLOCK_RECORD
  5
1
330
0
100
AcDbSymbolTable
 70
     1
  0
BLOCK_RECORD
  5
1F
330
1
100
AcDbSymbolTableRecord
100
AcDbBlockTableRecord
  2
*Model_Space
340
22
  0
BLOCK_RECORD
  5
1B
330
1
100
AcDbSymbolTableRecord
100
AcDbBlockTableRecord
  2
*Paper_Space
340
1E
  0
BLOCK_RECORD
  5
23
330
1
100
AcDbSymbolTableRecord
100
AcDbBlockTableRecord
  2
*Paper_Space0
340
26
  0
ENDTAB
  0
ENDSEC
  0
SECTION
  2
BLOCKS
  0
BLOCK
  5
20
330
1F
100
AcDbEntity
  8
0
100
AcDbBlockBegin
  2
*Model_Space
 70
     0
 10
0.0
 20
0.0
 30
0.0
  3
*Model_Space
  1

  0
ENDBLK
  5
21
330
1F
100
AcDbEntity
  8
0
100
AcDbBlockEnd
  0
BLOCK
  5
1C
330
1B
100
AcDbEntity
 67
     1
  8
0
100
AcDbBlockBegin
  2
*Paper_Space
 70
     0
 10
0.0
 20
0.0
 30
0.0
  3
*Paper_Space
  1

  0
ENDBLK
  5
1D
330
1B
100
AcDbEntity
 67
     1
  8
0
100
AcDbBlockEnd
  0
BLOCK
  5
24
330
23
100
AcDbEntity
  8
0
100
AcDbBlockBegin
  2
*Paper_Space0
 70
     0
 10
0.0
 20
0.0
 30
0.0
  3
*Paper_Space0
  1

  0
ENDBLK
  5
25
330
23
100
AcDbEntity
  8
0
100
AcDbBlockEnd
  0
ENDSEC
  0
SECTION
  2
ENTITIES
  0
SPLINE
  5
7B
330
1F
100
AcDbEntity
  8
0
  6
Continuous
 62
     7
370
    15
100
AcDbSpline
210
0.0
220
0.0
230
1.0
 70
     8
 71
     3
 72
    56
 73
    52
 74
     0
 42
0.00000001
 43
0.00000001
 12
1.0
 22
0.0
 32
0.0
 13
1.0
 23
0.0
 33
0.0
 40
0.0
 40
0.0
 40
0.0
 40
0.0
 40
0.03125
 40
0.03125
 40
0.0625000000000001
 40
0.0625000000000001
 40
0.0937500000000001
 40
0.0937500000000001
 40
0.1250000000000002
 40
0.1250000000000002
 40
0.1875
 40
0.1875
 40
0.2187499999999998
 40
0.2187499999999998
 40
0.2499999999999997
 40
0.2499999999999997
 40
0.3124999999999993
 40
0.3124999999999993
 40
0.3437499999999991
 40
0.3437499999999991
 40
0.3749999999999988
 40
0.3749999999999988
 40
0.4374999999999991
 40
0.4374999999999991
 40
0.4687499999999993
 40
0.4687499999999993
 40
0.4999999999999994
 40
0.4999999999999994
 40
0.5624999999999989
 40
0.5624999999999989
 40
0.593749999999999
 40
0.593749999999999
 40
0.6249999999999992
 40
0.6249999999999992
 40
0.6562499999999993
 40
0.6562499999999993
 40
0.6874999999999996
 40
0.6874999999999996
 40
0.7499999999999998
 40
0.7499999999999998
 40
0.7812499999999998
 40
0.7812499999999998
 40
0.8124999999999997
 40
0.8124999999999997
 40
0.8749999999999997
 40
0.8749999999999997
 40
0.9062499999999998
 40
0.9062499999999998
 40
0.9374999999999998
 40
0.9374999999999998
 40
1.0
 40
1.0
 40
1.0
 40
1.0
 10
52.39264068711928
 20
69.92573991008524
 30
0.0
 10
52.4930848163695
 20
69.90044799502145
 30
0.0
 10
52.61927466641297
 20
69.86886693501783
 30
0.0
 10
52.91867963454467
 20
69.79498878206769
 30
0.0
 10
53.09226796504317
 20
69.75259691697289
 30
0.0
 10
53.48652270084188
 20
69.65808141634108
 30
0.0
 10
53.70718919890894
 20
69.60595587452323
 30
0.0
 10
54.19616019063517
 20
69.49312744528045
 30
0.0
 10
54.46603946759603
 20
69.43208102423878
 30
0.0
 10
55.33612526269081
 20
69.24087668746112
 30
0.0
 10
55.99485172137192
 20
69.10291602721928
 30
0.0
 10
57.09835973456083
 20
68.89058010953633
 30
0.0
 10
57.4855624908087
 20
68.8188964754021
 30
0.0
 10
58.29987386035907
 20
68.67548556511386
 30
0.0
 10
58.7261613745522
 20
68.60395470220489
 30
0.0
 10
60.03941823074864
 20
68.39631454179464
 30
0.0
 10
60.96833947996381
 20
68.26571554880896
 30
0.0
 10
62.44296416109685
 20
68.09156003192241
 30
0.0
 10
62.94904069211174
 20
68.03704667544923
 30
0.0
 10
63.98593674177911
 20
67.93741715748136
 30
0.0
 10
64.51011235395292
 20
67.8929283134643
 30
0.0
 10
66.09940767035444
 20
67.77675128660285
 30
0.0
 10
67.18116092358171
 20
67.72234935562741
 30
0.0
 10
68.8379880964306
 20
67.6803919816572
 30
0.0
 10
69.39904406875803
 20
67.67304834650484
 30
0.0
 10
70.51201425101189
 20
67.67231696247973
 30
0.0
 10
71.06502361960443
 20
67.6788176801543
 30
0.0
 10
72.71389032249337
 20
67.71814786137857
 30
0.0
 10
73.79966826085801
 20
67.77082095887407
 30
0.0
 10
75.40770082321936
 20
67.88628286944459
 30
0.0
 10
75.93613446308994
 20
67.9305899679301
 30
0.0
 10
76.96574714291717
 20
68.02829554153345
 30
0.0
 10
77.46893424823087
 20
68.08183608409666
 30
0.0
 10
78.45255138490216
 20
68.19675249373553
 30
0.0
 10
78.93298116432022
 20
68.25813036872455
 30
0.0
 10
79.87097122210109
 20
68.3872084663444
 30
0.0
 10
80.33075378259221
 20
68.4552737456923
 30
0.0
 10
81.65478263094312
 20
68.66341149184932
 30
0.0
 10
82.46478669671882
 20
68.80722079067542
 30
0.0
 10
83.57453303223113
 20
69.01975172679663
 30
0.0
 10
83.92678514846878
 20
69.09007470021363
 30
0.0
 10
84.59512879846251
 20
69.22789078220717
 30
0.0
 10
84.91050542648591
 20
69.29525714278121
 30
0.0
 10
85.78294337326115
 20
69.48646820185343
 30
0.0
 10
86.27405893700315
 20
69.6008879935031
 30
0.0
 10
86.87513811102963
 20
69.74469470910388
 30
0.0
 10
87.05282618332429
 20
69.78801216970908
 30
0.0
 10
87.36056594913217
 20
69.8638462427811
 30
0.0
 10
87.48844050156198
 20
69.89582042019092
 30
0.0
 10
87.7959043441303
 20
69.97317239889188
 30
0.0
 10
87.90000000000002
 20
69.99999999999999
 30
0.0
 10
87.90000000000003
 20
70.0
 30
0.0
  0
SPLINE
  5
96
330
1F
100
AcDbEntity
  8
0
  6
Continuous
 62
     7
370
    15
100
AcDbSpline
210
0.0
220
0.0
230
1.0
 70
     8
 71
     3
 72
    12
 73
     8
 74
     0
 42
0.00000001
 43
0.00000001
 12
1.0
 22
0.0
 32
0.0
 13
1.0
 23
0.0
 33
0.0
 40
0.0
 40
0.0
 40
0.0
 40
0.0
 40
0.2499999999999994
 40
0.2499999999999994
 40
0.4999999999999989
 40
0.4999999999999989
 40
1.0
 40
1.0
 40
1.0
 40
1.0
 10
142.9861399389573
 20
49.40062280556459
 30
0.0
 10
142.924468847862
 20
49.50315375586673
 30
0.0
 10
142.8784873555438
 20
49.59958715860454
 30
0.0
 10
142.8046932765081
 20
49.78512907240816
 30
0.0
 10
142.7771039283322
 20
49.87448117640638
 30
0.0
 10
142.714729214804
 20
50.13174690117538
 30
0.0
 10
142.7
 20
50.28656353802484
 30
0.0
 10
142.7
 20
50.43148831142004
 30
0.0
  0
SPLINE
  5
C2
330
1F
100
AcDbEntity
  8
0
  6
Continuous
 62
     7
370
    15
100
AcDbSpline
210
0.0
220
0.0
230
1.0
 70
     8
 71
     3
 72
    10
 73
     6
 74
     0
 42
0.00000001
 43
0.00000001
 12
1.0
 22
0.0
 32
0.0
 13
1.0
 23
0.0
 33
0.0
 40
0.0
 40
0.0
 40
0.0
 40
0.0
 40
0.5
 40
0.5
 40
1.0
 40
1.0
 40
1.0
 40
1.0
 10
166.7
 20
13.35311954037587
 30
0.0
 10
166.5485451962487
 20
13.91728140466516
 30
0.0
 10
166.3884504526126
 20
14.49458088308531
 30
0.0
 10
166.0540430291684
 20
15.67412314598894
 30
0.0
 10
165.8796665640195
 20
16.27649559893599
 30
0.0
 10
165.7
 20
16.88708150473558
 30
0.0
  0
SPLINE
  5
C5
330
1F
100
AcDbEntity
  8
0
  6
Continuous
 62
     7
370
    15
100
AcDbSpline
210
0.0
220
0.0
230
1.0
 70
     8
 71
     3
 72
    20
 73
    16
 74
     0
 42
0.00000001
 43
0.00000001
 12
1.0
 22
0.0
 32
0.0
 13
1.0
 23
0.0
 33
0.0
 40
0.0
 40
0.0
 40
0.0
 40
0.0
 40
0.2499999999999994
 40
0.2499999999999994
 40
0.3749999999999994
 40
0.3749999999999994
 40
0.4999999999999997
 40
0.4999999999999997
 40
0.7499999999999999
 40
0.7499999999999999
 40
0.8749999999999999
 40
0.8749999999999999
 40
0.9374999999999999
 40
0.9374999999999999
 40
1.0
 40
1.0
 40
1.0
 40
1.0
 10
144.7
 20
55.73202614379085
 30
0.0
 10
144.7
 20
56.27516915767529
 30
0.0
 10
144.6186421231621
 20
56.74780583205138
 30
0.0
 10
144.4353490298138
 20
57.35861448464235
 30
0.0
 10
144.3633408303466
 20
57.54574577353847
 30
0.0
 10
144.2025316996466
 20
57.8872600903658
 30
0.0
 10
144.1134899836057
 20
58.04185393256094
 30
0.0
 10
143.8294176420363
 20
58.45239631932697
 30
0.0
 10
143.617184326792
 20
58.65698776599586
 30
0.0
 10
143.2816433488996
 20
58.86263118479596
 30
0.0
 10
143.1667778565587
 20
58.91420202353963
 30
0.0
 10
142.9927519805319
 20
58.96567567746909
 30
0.0
 10
142.9344160546259
 20
58.9785448404784
 30
0.0
 10
142.8173653311969
 20
58.99570988687278
 30
0.0
 10
142.7582285906857
 20
59.00000000000001
 30
0.0
 10
142.7
 20
59.0
 30
0.0
  0
LWPOLYLINE
  5
C8
330
1F
100
AcDbEntity
  8
0
  6
Continuous
 62
     7
370
    15
100
AcDbPolyline
 90
        9
 70
   128
 43
0.0
 10
144.7
 20
49.2143410291
 10
144.309819356
 20
49.2377281728
 10
143.9346331353
 20
49.3069908492
 10
143.588859534
 20
49.4194673325
 10
143.2857864376
 20
49.5708352144
 10
143.0370607754
 20
49.7552775122
 10
142.852240935
 20
49.9657062117
 10
142.7384294392
 20
50.1940346562
 10
142.7
 20
50.4314883114
  0
SPLINE
  5
CC
330
1F
100
AcDbEntity
  8
0
  6
Continuous
 62
     7
370
    15
100
AcDbSpline
210
0.0
220
0.0
230
1.0
 70
    24
 71
     3
 72
    10
 73
     6
 74
     0
 42
0.00000001
 43
0.00000001
 12
1.0
 22
0.0
 32
0.0
 13
1.0
 23
0.0
 33
0.0
 40
0.0
 40
0.0
 40
0.0
 40
0.0
 40
0.5
 40
0.5
 40
1.0
 40
1.0
 40
1.0
 40
1.0
 10
167.7
 20
18.25611498435674
 30
0.0
 10
167.7
 20
17.64014003162385
 30
0.0
 10
167.7
 20
17.01693929747606
 30
0.0
 10
167.7
 20
15.76716177650304
 30
0.0
 10
167.7
 20
15.14063831212298
 30
0.0
 10
167.7
 20
14.51328060671407
 30
0.0
  0
SPLINE
  5
CE
330
1F
100
AcDbEntity
  8
0
  6
Continuous
 62
     7
370
    15
100
AcDbSpline
210
0.0
220
0.0
230
1.0
 70
    24
 71
     3
 72
    16
 73
    12
 74
     0
 42
0.00000001
 43
0.00000001
 12
1.0
 22
0.0
 32
0.0
 13
1.0
 23
0.0
 33
0.0
 40
0.0
 40
0.0
 40
0.0
 40
0.0
 40
0.125
 40
0.125
 40
0.2500000000000001
 40
0.2500000000000001
 40
0.3750000000000001
 40
0.3750000000000001
 40
0.5000000000000001
 40
0.5000000000000001
 40
1.0
 40
1.0
 40
1.0
 40
1.0
 10
167.7
 20
14.51328060671408
 30
0.0
 10
167.7
 20
14.04590593990497
 30
0.0
 10
167.7
 20
13.62934834264276
 30
0.0
 10
167.7
 20
12.85289636354508
 30
0.0
 10
167.7
 20
12.4951393942918
 30
0.0
 10
167.7
 20
11.83008717815999
 30
0.0
 10
167.7
 20
11.52303763693214
 30
0.0
 10
167.7
 20
10.95701648749656
 30
0.0
 10
167.7
 20
10.69920368951738
 30
0.0
 10
167.7
 20
9.54623319990856
 30
0.0
 10
167.7
 20
9.03681227681401
 30
0.0
 10
167.7
 20
9.052410315479696
 30
0.0
  0
SPLINE
  5
DC
330
1F
100
AcDbEntity
  8
0
  6
Continuous
 62
     8
370
    15
100
AcDbSpline
210
0.0
220
0.0
230
1.0
 70
     8
 71
     3
 72
    13
 73
     9
 74
     0
 42
0.00000001
 43
0.00000001
 12
1.0
 22
0.0
 32
0.0
 13
1.0
 23
0.0
 33
0.0
 40
0.0
 40
0.0
 40
0.0
 40
0.0
 40
0.0001529549345389
 40
0.1294746008672195
 40
0.3885902581265523
 40
0.6314467277692115
 40
0.8826861994509262
 40
1.0
 40
1.0
 40
1.0
 40
1.0
 10
167.6980212704907
 20
8.963390289580287
 30
0.0
 10
167.6980215954441
 20
8.963382164589412
 30
0.0
 10
167.6982966647955
 20
8.95650445283959
 30
0.0
 10
167.6962623152411
 20
9.02119441807768
 30
0.0
 10
167.6696698899796
 20
9.408142770664567
 30
0.0
 10
167.479938529934
 20
10.4654635034851
 30
0.0
 10
167.1662123533033
 20
11.81189889910381
 30
0.0
 10
166.8125681201569
 20
12.98098802325551
 30
0.0
 10
166.7000000000001
 20
13.35311954037563
 30
0.0
  0
LINE
  5
DD
330
1F
100
AcDbEntity
  8
0
  6
Continuous
 62
     7
370
    15
100
AcDbLine
 10
6.3
 20
-76.6
 30
0.0
 11
12.2289321881
 21
-76.6
 31
0.0
  0
LINE
  5
DE
330
1F
100
AcDbEntity
  8
0
  6
Continuous
 62
     7
370
    15
100
AcDbLine
 10
12.2289321881
 20
76.6
 30
0.0
 11
6.3
 21
76.6
 31
0.0
  0
LINE
  5
DF
330
1F
100
AcDbEntity
  8
0
  6
Continuous
 62
     7
370
    15
100
AcDbLine
 10
15.7644660941
 20
-75.1355339059
 30
0.0
 11
16.8355339059
 21
-74.0644660941
 31
0.0
  0
LINE
  5
E0
330
1F
100
AcDbEntity
  8
0
  6
Continuous
 62
     7
370
    15
100
AcDbLine
 10
16.8355339059
 20
74.0644660941
 30
0.0
 11
15.7644660941
 21
75.1355339059
 31
0.0
  0
LINE
  5
E1
330
1F
100
AcDbEntity
  8
0
  6
Continuous
 62
     7
370
    15
100
AcDbLine
 10
20.3710678119
 20
-72.6
 30
0.0
 11
47.3073593129
 21
-72.6
 31
0.0
  0
LINE
  5
E2
330
1F
100
AcDbEntity
  8
0
  6
Continuous
 62
     7
370
    15
100
AcDbLine
 10
47.3073593129
 20
72.6
 30
0.0
 11
20.3710678119
 21
72.6
 31
0.0
  0
LINE
  5
E3
330
1F
100
AcDbEntity
  8
0
  6
Continuous
 62
     7
370
    15
100
AcDbLine
 10
49.4286796564
 20
-71.7213203436
 30
0.0
 11
50.2713203436
 21
-70.8786796564
 31
0.0
  0
LINE
  5
E4
330
1F
100
AcDbEntity
  8
0
  6
Continuous
 62
     7
370
    15
100
AcDbLine
 10
50.2713203436
 20
70.8786796564
 30
0.0
 11
49.4286796564
 21
71.7213203436
 31
0.0
  0
LINE
  5
E5
330
1F
100
AcDbEntity
  8
0
  6
Continuous
 62
     7
370
    15
100
AcDbLine
 10
52.3926406871
 20
-70.0
 30
0.0
 11
126.0789321881
 21
-70.0
 31
0.0
  0
LINE
  5
E6
330
1F
100
AcDbEntity
  8
0
  6
Continuous
 62
     7
370
    15
100
AcDbLine
 10
126.0789321881
 20
70.0
 30
0.0
 11
87.9
 21
70.0
 31
0.0
  0
LINE
  5
E7
330
1F
100
AcDbEntity
  8
0
  6
Continuous
 62
     7
370
    15
100
AcDbLine
 10
129.6144660941
 20
-68.5355339059
 30
0.0
 11
132.2355339059
 21
-65.9144660941
 31
0.0
  0
LINE
  5
E8
330
1F
100
AcDbEntity
  8
0
  6
Continuous
 62
     7
370
    15
100
AcDbLine
 10
132.2355339059
 20
65.9144660941
 30
0.0
 11
129.6144660941
 21
68.5355339059
 31
0.0
  0
LINE
  5
E9
330
1F
100
AcDbEntity
  8
0
  6
Continuous
 62
     7
370
    15
100
AcDbLine
 10
6.3
 20
80.5
 30
0.0
 11
-5.0
 21
80.5
 31
0.0
  0
LINE
  5
EA
330
1F
100
AcDbEntity
  8
0
  6
Continuous
 62
     7
370
    15
100
AcDbLine
 10
-142.5
 20
60.0
 30
0.0
 11
-168.5
 21
60.0
 31
0.0
  0
LINE
  5
EB
330
1F
100
AcDbEntity
  8
0
  6
Continuous
 62
     7
370
    15
100
AcDbLine
 10
-168.5
 20
-60.0
 30
0.0
 11
-133.5
 21
-60.0
 31
0.0
  0
LINE
  5
EC
330
1F
100
AcDbEntity
  8
0
  6
Continuous
 62
     7
370
    15
100
AcDbLine
 10
-168.5
 20
60.0
 30
0.0
 11
-177.5
 21
42.75
 31
0.0
  0
LINE
  5
ED
330
1F
100
AcDbEntity
  8
0
  6
Continuous
 62
     7
370
    15
100
AcDbLine
 10
-177.5
 20
-42.75
 30
0.0
 11
-168.5
 21
-60.0
 31
0.0
  0
LINE
  5
EE
330
1F
100
AcDbEntity
  8
0
  6
Continuous
 62
     7
370
    15
100
AcDbLine
 10
0.0
 20
-80.5
 30
0.0
 11
6.3
 21
-80.5
 31
0.0
  0
LINE
  5
EF
330
1F
100
AcDbEntity
  8
0
  6
Continuous
 62
     7
370
    15
100
AcDbLine
 10
136.7
 20
-59.0
 30
0.0
 11
142.7
 21
-59.0
 31
0.0
  0
LINE
  5
F0
330
1F
100
AcDbEntity
  8
0
  6
Continuous
 62
     7
370
    15
100
AcDbLine
 10
165.7
 20
59.0
 30
0.0
 11
136.7
 21
59.0
 31
0.0
  0
LINE
  5
F1
330
1F
100
AcDbEntity
  8
0
  6
Continuous
 62
     7
370
    15
100
AcDbLine
 10
-5.0
 20
53.0
 30
0.0
 11
-17.35
 21
53.0
 31
0.0
  0
LINE
  5
F2
330
1F
100
AcDbEntity
  8
0
  6
Continuous
 62
     7
370
    15
100
AcDbLine
 10
-133.5
 20
-53.0
 30
0.0
 11
-12.1398637246
 21
-53.0
 31
0.0
  0
LINE
  5
F3
330
1F
100
AcDbEntity
  8
0
  6
Continuous
 62
     7
370
    15
100
AcDbLine
 10
167.7
 20
14.75
 30
0.0
 11
185.0
 21
14.75
 31
0.0
  0
LINE
  5
F4
330
1F
100
AcDbEntity
  8
0
  6
Continuous
 62
     7
370
    15
100
AcDbLine
 10
185.0
 20
53.25
 30
0.0
 11
167.7
 21
53.25
 31
0.0
  0
LINE
  5
F5
330
1F
100
AcDbEntity
  8
0
  6
Continuous
 62
     7
370
    15
100
AcDbLine
 10
87.9
 20
70.0
 30
0.0
 11
87.9
 21
95.0
 31
0.0
  0
LINE
  5
F6
330
1F
100
AcDbEntity
  8
0
  6
Continuous
 62
     7
370
    15
100
AcDbLine
 10
52.1
 20
95.0
 30
0.0
 11
52.1
 21
70.012731585
 31
0.0
  0
LINE
  5
F7
330
1F
100
AcDbEntity
  8
0
  6
Continuous
 62
     7
370
    15
100
AcDbLine
 10
-5.0
 20
60.0
 30
0.0
 11
6.3
 21
60.0
 31
0.0
  0
LINE
  5
F8
330
1F
100
AcDbEntity
  8
0
  6
Continuous
 62
     7
370
    15
100
AcDbLine
 10
6.3
 20
80.5
 30
0.0
 11
6.3
 21
-80.5
 31
0.0
  0
LINE
  5
F9
330
1F
100
AcDbEntity
  8
0
  6
Continuous
 62
     7
370
    15
100
AcDbLine
 10
-5.0
 20
-60.0
 30
0.0
 11
6.3
 21
-60.0
 31
0.0
  0
LINE
  5
FA
330
1F
100
AcDbEntity
  8
0
  6
Continuous
 62
     7
370
    15
100
AcDbLine
 10
-33.0
 20
-72.0
 30
0.0
 11
-5.0
 21
-72.0
 31
0.0
  0
LINE
  5
FB
330
1F
100
AcDbEntity
  8
0
  6
Continuous
 62
     7
370
    15
100
AcDbLine
 10
0.0
 20
-61.5
 30
0.0
 11
-5.0
 21
-61.5
 31
0.0
  0
LINE
  5
FC
330
1F
100
AcDbEntity
  8
0
  6
Continuous
 62
     7
370
    15
100
AcDbLine
 10
0.0
 20
-82.0
 30
0.0
 11
-33.0
 21
-82.0
 31
0.0
  0
LINE
  5
FD
330
1F
100
AcDbEntity
  8
0
  6
Continuous
 62
     7
370
    15
100
AcDbLine
 10
-33.0
 20
-82.0
 30
0.0
 11
-33.0
 21
-72.0
 31
0.0
  0
LINE
  5
FE
330
1F
100
AcDbEntity
  8
0
  6
Continuous
 62
     7
370
    15
100
AcDbLine
 10
0.0
 20
-82.0
 30
0.0
 11
0.0
 21
-61.5
 31
0.0
  0
LINE
  5
FF
330
1F
100
AcDbEntity
  8
0
  6
Continuous
 62
     7
370
    15
100
AcDbLine
 10
-5.0
 20
-72.0
 30
0.0
 11
-5.0
 21
80.5
 31
0.0
  0
LINE
  5
100
330
1F
100
AcDbEntity
  8
0
  6
Continuous
 62
     7
370
    15
100
AcDbLine
 10
52.1052150089
 20
70.0127242449
 30
0.0
 11
52.3926406871
 21
69.9257399101
 31
0.0
  0
LINE
  5
101
330
1F
100
AcDbEntity
  8
0
  6
Continuous
 62
     7
370
    15
100
AcDbLine
 10
-5.0
 20
70.0
 30
0.0
 11
6.3
 21
70.0
 31
0.0
  0
LINE
  5
102
330
1F
100
AcDbEntity
  8
0
  6
Continuous
 62
     7
370
    15
100
AcDbLine
 10
6.3
 20
-70.0
 30
0.0
 11
0.0
 21
-70.0
 31
0.0
  0
LINE
  5
103
330
1F
100
AcDbEntity
  8
0
  6
Continuous
 62
     7
370
    15
100
AcDbLine
 10
133.7
 20
62.3789321833
 30
0.0
 11
133.7
 21
-62.3789321881
 31
0.0
  0
LINE
  5
104
330
1F
100
AcDbEntity
  8
0
  6
Continuous
 62
     7
370
    15
100
AcDbLine
 10
-142.5
 20
51.2733597058
 30
0.0
 11
-133.5
 21
51.2733597058
 31
0.0
  0
LINE
  5
105
330
1F
100
AcDbEntity
  8
0
  6
Continuous
 62
     7
370
    15
100
AcDbLine
 10
-133.5
 20
51.2733597058
 30
0.0
 11
-133.5
 21
-60.0
 31
0.0
  0
LINE
  5
106
330
1F
100
AcDbEntity
  8
0
  6
Continuous
 62
     7
370
    15
100
AcDbLine
 10
-168.5
 20
60.0
 30
0.0
 11
-168.5
 21
-60.0
 31
0.0
  0
LINE
  5
107
330
1F
100
AcDbEntity
  8
0
  6
Continuous
 62
     7
370
    15
100
AcDbLine
 10
-177.5
 20
42.75
 30
0.0
 11
-177.5
 21
-42.75
 31
0.0
  0
LINE
  5
108
330
1F
100
AcDbEntity
  8
0
  6
Continuous
 62
     7
370
    15
100
AcDbLine
 10
-131.75
 20
-0.725
 30
0.0
 11
-5.0
 21
-0.725
 31
0.0
  0
LINE
  5
109
330
1F
100
AcDbEntity
  8
0
  6
Continuous
 62
     7
370
    15
100
AcDbLine
 10
-131.75
 20
0.725
 30
0.0
 11
-5.0
 21
0.725
 31
0.0
  0
LINE
  5
10A
330
1F
100
AcDbEntity
  8
0
  6
Continuous
 62
     7
370
    15
100
AcDbLine
 10
-131.75
 20
-0.725
 30
0.0
 11
-131.75
 21
0.725
 31
0.0
  0
LINE
  5
10B
330
1F
100
AcDbEntity
  8
0
  6
Continuous
 62
     7
370
    15
100
AcDbLine
 10
-131.75
 20
-8.575
 30
0.0
 11
-5.0
 21
-8.575
 31
0.0
  0
LINE
  5
10C
330
1F
100
AcDbEntity
  8
0
  6
Continuous
 62
     7
370
    15
100
AcDbLine
 10
-131.75
 20
-8.575
 30
0.0
 11
-131.75
 21
-7.125
 31
0.0
  0
LINE
  5
10D
330
1F
100
AcDbEntity
  8
0
  6
Continuous
 62
     7
370
    15
100
AcDbLine
 10
-131.75
 20
-7.125
 30
0.0
 11
-5.0
 21
-7.125
 31
0.0
  0
LINE
  5
10E
330
1F
100
AcDbEntity
  8
0
  6
Continuous
 62
     7
370
    15
100
AcDbLine
 10
-131.75
 20
7.125
 30
0.0
 11
-5.0
 21
7.125
 31
0.0
  0
LINE
  5
10F
330
1F
100
AcDbEntity
  8
0
  6
Continuous
 62
     7
370
    15
100
AcDbLine
 10
-131.75
 20
8.575
 30
0.0
 11
-5.0
 21
8.575
 31
0.0
  0
LINE
  5
110
330
1F
100
AcDbEntity
  8
0
  6
Continuous
 62
     7
370
    15
100
AcDbLine
 10
-131.75
 20
7.125
 30
0.0
 11
-131.75
 21
8.575
 31
0.0
  0
LINE
  5
111
330
1F
100
AcDbEntity
  8
0
  6
Continuous
 62
     7
370
    15
100
AcDbLine
 10
142.7
 20
-59.0
 30
0.0
 11
142.7
 21
59.0
 31
0.0
  0
LINE
  5
112
330
1F
100
AcDbEntity
  8
0
  6
Continuous
 62
     7
370
    15
100
AcDbLine
 10
172.7
 20
0.0
 30
0.0
 11
142.986139939
 21
49.4006228056
 31
0.0
  0
LINE
  5
113
330
1F
100
AcDbEntity
  8
0
  6
Continuous
 62
     7
370
    15
100
AcDbLine
 10
-131.75
 20
14.975
 30
0.0
 11
-131.75
 21
16.425
 31
0.0
  0
LINE
  5
114
330
1F
100
AcDbEntity
  8
0
  6
Continuous
 62
     7
370
    15
100
AcDbLine
 10
-131.75
 20
16.425
 30
0.0
 11
-5.0
 21
16.425
 31
0.0
  0
LINE
  5
115
330
1F
100
AcDbEntity
  8
0
  6
Continuous
 62
     7
370
    15
100
AcDbLine
 10
-131.75
 20
14.975
 30
0.0
 11
-5.0
 21
14.975
 31
0.0
  0
LINE
  5
116
330
1F
100
AcDbEntity
  8
0
  6
Continuous
 62
     7
370
    15
100
AcDbLine
 10
-131.75
 20
-16.425
 30
0.0
 11
-131.75
 21
-14.975
 31
0.0
  0
LINE
  5
117
330
1F
100
AcDbEntity
  8
0
  6
Continuous
 62
     7
370
    15
100
AcDbLine
 10
-131.75
 20
-14.975
 30
0.0
 11
-5.0
 21
-14.975
 31
0.0
  0
LINE
  5
118
330
1F
100
AcDbEntity
  8
0
  6
Continuous
 62
     7
370
    15
100
AcDbLine
 10
-131.75
 20
-16.425
 30
0.0
 11
-5.0
 21
-16.425
 31
0.0
  0
LINE
  5
119
330
1F
100
AcDbEntity
  8
0
  6
Continuous
 62
     7
370
    15
100
AcDbLine
 10
-131.75
 20
24.275
 30
0.0
 11
-5.0
 21
24.275
 31
0.0
  0
LINE
  5
11A
330
1F
100
AcDbEntity
  8
0
  6
Continuous
 62
     7
370
    15
100
AcDbLine
 10
-131.75
 20
22.825
 30
0.0
 11
-5.0
 21
22.825
 31
0.0
  0
LINE
  5
11B
330
1F
100
AcDbEntity
  8
0
  6
Continuous
 62
     7
370
    15
100
AcDbLine
 10
-131.75
 20
22.825
 30
0.0
 11
-131.75
 21
24.275
 31
0.0
  0
LINE
  5
11C
330
1F
100
AcDbEntity
  8
0
  6
Continuous
 62
     7
370
    15
100
AcDbLine
 10
-131.75
 20
-22.825
 30
0.0
 11
-5.0
 21
-22.825
 31
0.0
  0
LINE
  5
11D
330
1F
100
AcDbEntity
  8
0
  6
Continuous
 62
     7
370
    15
100
AcDbLine
 10
-131.75
 20
-24.275
 30
0.0
 11
-5.0
 21
-24.275
 31
0.0
  0
LINE
  5
11E
330
1F
100
AcDbEntity
  8
0
  6
Continuous
 62
     7
370
    15
100
AcDbLine
 10
-131.75
 20
-24.275
 30
0.0
 11
-131.75
 21
-22.825
 31
0.0
  0
LINE
  5
11F
330
1F
100
AcDbEntity
  8
0
  6
Continuous
 62
     7
370
    15
100
AcDbLine
 10
-133.5
 20
46.6261979566
 30
0.0
 11
-17.35
 21
46.6261979566
 31
0.0
  0
LINE
  5
120
330
1F
100
AcDbEntity
  8
0
  6
Continuous
 62
     7
370
    15
100
AcDbLine
 10
-5.0
 20
-44.2950465012
 30
0.0
 11
-12.1398637246
 21
-44.2950465012
 31
0.0
  0
LINE
  5
121
330
1F
100
AcDbEntity
  8
0
  6
Continuous
 62
     7
370
    15
100
AcDbLine
 10
-131.75
 20
-30.675
 30
0.0
 11
-5.0
 21
-30.675
 31
0.0
  0
LINE
  5
122
330
1F
100
AcDbEntity
  8
0
  6
Continuous
 62
     7
370
    15
100
AcDbLine
 10
-131.75
 20
-32.125
 30
0.0
 11
-5.0
 21
-32.125
 31
0.0
  0
LINE
  5
123
330
1F
100
AcDbEntity
  8
0
  6
Continuous
 62
     7
370
    15
100
AcDbLine
 10
-131.75
 20
-32.125
 30
0.0
 11
-131.75
 21
-30.675
 31
0.0
  0
LINE
  5
124
330
1F
100
AcDbEntity
  8
0
  6
Continuous
 62
     7
370
    15
100
AcDbLine
 10
-131.75
 20
30.675
 30
0.0
 11
-5.0
 21
30.675
 31
0.0
  0
LINE
  5
125
330
1F
100
AcDbEntity
  8
0
  6
Continuous
 62
     7
370
    15
100
AcDbLine
 10
-131.75
 20
32.125
 30
0.0
 11
-5.0
 21
32.125
 31
0.0
  0
LINE
  5
126
330
1F
100
AcDbEntity
  8
0
  6
Continuous
 62
     7
370
    15
100
AcDbLine
 10
-131.75
 20
30.675
 30
0.0
 11
-131.75
 21
32.125
 31
0.0
  0
LINE
  5
127
330
1F
100
AcDbEntity
  8
0
  6
Continuous
 62
     7
370
    15
100
AcDbLine
 10
-33.0
 20
-72.0
 30
0.0
 11
-12.1398637246
 21
-54.0336683396
 31
0.0
  0
LINE
  5
128
330
1F
100
AcDbEntity
  8
0
  6
Continuous
 62
     7
370
    15
100
AcDbLine
 10
-12.1398637246
 20
-54.0336683396
 30
0.0
 11
-12.1398637246
 21
-44.2950465012
 31
0.0
  0
LINE
  5
129
330
1F
100
AcDbEntity
  8
0
  6
Continuous
 62
     7
370
    15
100
AcDbLine
 10
-131.75
 20
-38.525
 30
0.0
 11
-5.0
 21
-38.525
 31
0.0
  0
LINE
  5
12A
330
1F
100
AcDbEntity
  8
0
  6
Continuous
 62
     7
370
    15
100
AcDbLine
 10
-131.75
 20
-39.975
 30
0.0
 11
-5.0
 21
-39.975
 31
0.0
  0
LINE
  5
12B
330
1F
100
AcDbEntity
  8
0
  6
Continuous
 62
     7
370
    15
100
AcDbLine
 10
-131.75
 20
-39.975
 30
0.0
 11
-131.75
 21
-38.525
 31
0.0
  0
LINE
  5
12C
330
1F
100
AcDbEntity
  8
0
  6
Continuous
 62
     7
370
    15
100
AcDbLine
 10
-131.75
 20
39.975
 30
0.0
 11
-5.0
 21
39.975
 31
0.0
  0
LINE
  5
12D
330
1F
100
AcDbEntity
  8
0
  6
Continuous
 62
     7
370
    15
100
AcDbLine
 10
-131.75
 20
38.525
 30
0.0
 11
-131.75
 21
39.975
 31
0.0
  0
LINE
  5
12E
330
1F
100
AcDbEntity
  8
0
  6
Continuous
 62
     7
370
    15
100
AcDbLine
 10
-131.75
 20
38.525
 30
0.0
 11
-5.0
 21
38.525
 31
0.0
  0
LINE
  5
12F
330
1F
100
AcDbEntity
  8
0
  6
Continuous
 62
     7
370
    15
100
AcDbLine
 10
-145.14
 20
100.3
 30
0.0
 11
-14.71
 21
100.3
 31
0.0
  0
LINE
  5
130
330
1F
100
AcDbEntity
  8
0
  6
Continuous
 62
     7
370
    15
100
AcDbLine
 10
-145.14
 20
100.3
 30
0.0
 11
-133.8919413688
 21
110.0
 31
0.0
  0
LINE
  5
131
330
1F
100
AcDbEntity
  8
0
  6
Continuous
 62
     7
370
    15
100
AcDbLine
 10
-25.9580586312
 20
110.0
 30
0.0
 11
-133.8919413688
 21
110.0
 31
0.0
  0
LINE
  5
132
330
1F
100
AcDbEntity
  8
0
  6
Continuous
 62
     7
370
    15
100
AcDbLine
 10
-25.9580586312
 20
110.0
 30
0.0
 11
-14.71
 21
100.3
 31
0.0
  0
LINE
  5
133
330
1F
100
AcDbEntity
  8
0
  6
Continuous
 62
     7
370
    15
100
AcDbLine
 10
-145.14
 20
92.0
 30
0.0
 11
-14.71
 21
92.0
 31
0.0
  0
LINE
  5
134
330
1F
100
AcDbEntity
  8
0
  6
Continuous
 62
     7
370
    15
100
AcDbLine
 10
-145.14
 20
100.3
 30
0.0
 11
-145.14
 21
92.0
 31
0.0
  0
LINE
  5
135
330
1F
100
AcDbEntity
  8
0
  6
Continuous
 62
     7
370
    15
100
AcDbLine
 10
-14.71
 20
100.3
 30
0.0
 11
-14.71
 21
92.0
 31
0.0
  0
LINE
  5
136
330
1F
100
AcDbEntity
  8
0
  6
Continuous
 62
     7
370
    15
100
AcDbLine
 10
-17.35
 20
46.6261979566
 30
0.0
 11
-17.35
 21
92.0
 31
0.0
  0
LINE
  5
137
330
1F
100
AcDbEntity
  8
0
  6
Continuous
 62
     7
370
    15
100
AcDbLine
 10
-142.5
 20
55.979793848
 30
0.0
 11
-17.35
 21
55.979793848
 31
0.0
  0
LINE
  5
138
330
1F
100
AcDbEntity
  8
0
  6
Continuous
 62
     7
370
    15
100
AcDbLine
 10
-142.5
 20
92.0
 30
0.0
 11
-142.5
 21
51.2733597058
 31
0.0
  0
LINE
  5
139
330
1F
100
AcDbEntity
  8
0
  6
Continuous
 62
     7
370
    15
100
AcDbLine
 10
144.7
 20
49.2143410291
 30
0.0
 11
165.7
 21
16.8870815047
 31
0.0
  0
LINE
  5
13A
330
1F
100
AcDbEntity
  8
0
  6
Continuous
 62
     7
370
    15
100
AcDbLine
 10
144.7
 20
55.7320261438
 30
0.0
 11
144.7
 21
49.2143410291
 31
0.0
  0
LINE
  5
13B
330
1F
100
AcDbEntity
  8
0
  6
Continuous
 62
     7
370
    15
100
AcDbLine
 10
167.7
 20
57.0
 30
0.0
 11
167.7
 21
18.2561149844
 31
0.0
  0
LINE
  5
13C
330
1F
100
AcDbEntity
  8
0
  6
Continuous
 62
     7
370
    15
100
AcDbLine
 10
185.0
 20
53.25
 30
0.0
 11
185.0
 21
14.75
 31
0.0
  0
LINE
  5
13D
330
1F
100
AcDbEntity
  8
0
  6
Continuous
 62
     7
370
    15
100
AcDbLine
 10
87.9
 20
95.0
 30
0.0
 11
52.1
 21
95.0
 31
0.0
  0
LINE
  5
13E
330
1F
100
AcDbEntity
  8
0
  6
Continuous
 62
     8
370
    15
100
AcDbLine
 10
12.2289321881
 20
-76.6
 30
0.0
 11
12.2289321881
 21
76.6
 31
0.0
  0
LINE
  5
13F
330
1F
100
AcDbEntity
  8
0
  6
Continuous
 62
     8
370
    15
100
AcDbLine
 10
15.7644660941
 20
75.1355339059
 30
0.0
 11
15.7644660941
 21
-75.1355339059
 31
0.0
  0
LINE
  5
140
330
1F
100
AcDbEntity
  8
0
  6
Continuous
 62
     8
370
    15
100
AcDbLine
 10
16.8355339059
 20
-74.0644660941
 30
0.0
 11
16.8355339059
 21
74.0644660941
 31
0.0
  0
LINE
  5
141
330
1F
100
AcDbEntity
  8
0
  6
Continuous
 62
     8
370
    15
100
AcDbLine
 10
20.3710678119
 20
72.6
 30
0.0
 11
20.3710678119
 21
-72.6
 31
0.0
  0
LINE
  5
142
330
1F
100
AcDbEntity
  8
0
  6
Continuous
 62
     8
370
    15
100
AcDbLine
 10
47.3073593129
 20
-72.6
 30
0.0
 11
47.3073593129
 21
72.6
 31
0.0
  0
LINE
  5
143
330
1F
100
AcDbEntity
  8
0
  6
Continuous
 62
     8
370
    15
100
AcDbLine
 10
49.4286796564
 20
71.7213203436
 30
0.0
 11
49.4286796564
 21
-71.7213203436
 31
0.0
  0
LINE
  5
144
330
1F
100
AcDbEntity
  8
0
  6
Continuous
 62
     8
370
    15
100
AcDbLine
 10
50.2713203436
 20
-70.8786796564
 30
0.0
 11
50.2713203436
 21
70.8786796564
 31
0.0
  0
LINE
  5
145
330
1F
100
AcDbEntity
  8
0
  6
Continuous
 62
     8
370
    15
100
AcDbLine
 10
52.3926406871
 20
69.9257399101
 30
0.0
 11
52.3926406871
 21
-70.0
 31
0.0
  0
LINE
  5
146
330
1F
100
AcDbEntity
  8
0
  6
Continuous
 62
     8
370
    15
100
AcDbLine
 10
126.0789321881
 20
-70.0
 30
0.0
 11
126.0789321881
 21
70.0
 31
0.0
  0
LINE
  5
147
330
1F
100
AcDbEntity
  8
0
  6
Continuous
 62
     8
370
    15
100
AcDbLine
 10
129.6144660941
 20
68.5355339059
 30
0.0
 11
129.6144660941
 21
-68.5355339059
 31
0.0
  0
LINE
  5
148
330
1F
100
AcDbEntity
  8
0
  6
Continuous
 62
     8
370
    15
100
AcDbLine
 10
132.2355339059
 20
-65.9144660941
 30
0.0
 11
132.2355339059
 21
65.9144660941
 31
0.0
  0
LINE
  5
149
330
1F
100
AcDbEntity
  8
0
  6
Continuous
 62
     8
370
    15
100
AcDbLine
 10
136.7
 20
59.0
 30
0.0
 11
136.7
 21
-59.0
 31
0.0
  0
LINE
  5
14A
330
1F
100
AcDbEntity
  8
0
  6
Continuous
 62
     8
370
    15
100
AcDbLine
 10
165.7
 20
16.8870815047
 30
0.0
 11
165.7
 21
59.0
 31
0.0
  0
ARC
  5
14B
330
1F
100
AcDbEntity
  8
0
  6
Continuous
 62
     7
370
    15
100
AcDbCircle
 10
12.2289321881
 20
71.6
 30
0.0
 40
4.999999999999944
100
AcDbArc
 50
45.0
 51
90.0
  0
ARC
  5
14C
330
1F
100
AcDbEntity
  8
0
  6
Continuous
 62
     7
370
    15
100
AcDbCircle
 10
12.2289321881
 20
-71.6
 30
0.0
 40
4.999999999999946
100
AcDbArc
 50
270.0
 51
315.0
  0
ARC
  5
14D
330
1F
100
AcDbEntity
  8
0
  6
Continuous
 62
     7
370
    15
100
AcDbCircle
 10
20.3710678119
 20
-77.6
 30
0.0
 40
5.000000000000187
100
AcDbArc
 50
90.0
 51
135.0
  0
ARC
  5
14E
330
1F
100
AcDbEntity
  8
0
  6
Continuous
 62
     7
370
    15
100
AcDbCircle
 10
20.3710678119
 20
77.6
 30
0.0
 40
5.000000000000014
100
AcDbArc
 50
225.0
 51
270.0
  0
ARC
  5
14F
330
1F
100
AcDbEntity
  8
0
  6
Continuous
 62
     7
370
    15
100
AcDbCircle
 10
47.3073593129
 20
69.6
 30
0.0
 40
3.00000000000013
100
AcDbArc
 50
45.0
 51
90.0
  0
ARC
  5
150
330
1F
100
AcDbEntity
  8
0
  6
Continuous
 62
     7
370
    15
100
AcDbCircle
 10
47.3073593129
 20
-69.6
 30
0.0
 40
2.999999999999893
100
AcDbArc
 50
270.0
 51
315.0
  0
ARC
  5
151
330
1F
100
AcDbEntity
  8
0
  6
Continuous
 62
     7
370
    15
100
AcDbCircle
 10
52.3926406871
 20
-73.0
 30
0.0
 40
3.000000000000185
100
AcDbArc
 50
90.0
 51
135.0
  0
ARC
  5
152
330
1F
100
AcDbEntity
  8
0
  6
Continuous
 62
     7
370
    15
100
AcDbCircle
 10
52.3926406871
 20
73.0
 30
0.0
 40
3.000000000000089
100
AcDbArc
 50
225.0
 51
264.535072391
  0
ARC
  5
153
330
1F
100
AcDbEntity
  8
0
  6
Continuous
 62
     7
370
    15
100
AcDbCircle
 10
126.0789321881
 20
65.0
 30
0.0
 40
5.0
100
AcDbArc
 50
45.0
 51
90.0
  0
ARC
  5
154
330
1F
100
AcDbEntity
  8
0
  6
Continuous
 62
     7
370
    15
100
AcDbCircle
 10
126.0789321881
 20
-65.0
 30
0.0
 40
4.999999999999879
100
AcDbArc
 50
270.0
 51
315.0
  0
ARC
  5
155
330
1F
100
AcDbEntity
  8
0
  6
Continuous
 62
     7
370
    15
100
AcDbCircle
 10
128.7
 20
-62.3789321881
 30
0.0
 40
5.00000000000006
100
AcDbArc
 50
315.0
 51
0.0
  0
ARC
  5
156
330
1F
100
AcDbEntity
  8
0
  6
Continuous
 62
     7
370
    15
100
AcDbCircle
 10
128.7
 20
62.3789321881
 30
0.0
 40
4.999999999999915
100
AcDbArc
 50
0.0
 51
45.0
  0
ARC
  5
157
330
1F
100
AcDbEntity
  8
0
  6
Continuous
 62
     7
370
    15
100
AcDbCircle
 10
136.7
 20
-62.0
 30
0.0
 40
3.0
100
AcDbArc
 50
90.0
 51
180.0
  0
ARC
  5
158
330
1F
100
AcDbEntity
  8
0
  6
Continuous
 62
     7
370
    15
100
AcDbCircle
 10
136.7
 20
62.0
 30
0.0
 40
3.0
100
AcDbArc
 50
180.0
 51
270.0
  0
ARC
  5
159
330
1F
100
AcDbEntity
  8
0
  6
Continuous
 62
     7
370
    15
100
AcDbCircle
 10
99.6833333333
 20
0.0
 30
0.0
 40
73.01666666666632
100
AcDbArc
 50
306.0956421375
 51
0.0
  0
ARC
  5
15A
330
1F
100
AcDbEntity
  8
0
  6
Continuous
 62
     7
370
    15
100
AcDbCircle
 10
165.7
 20
57.0
 30
0.0
 40
2.000000000000007
100
AcDbArc
 50
0.0
 51
90.0
  0
ARC
  5
15B
330
1F
100
AcDbEntity
  8
0
  6
Continuous
 62
     7
370
    15
100
AcDbCircle
 10
169.6960437257
 20
8.8744458326
 30
0.0
 40
1.999999704408342
100
AcDbArc
 50
177.4334325134
 51
211.025261679
  0
ARC
  5
15C
330
1F
100
AcDbEntity
  8
0
  6
Continuous
 62
     7
370
    15
100
AcDbCircle
 10
143.9650868623
 20
50.4300816875
 30
0.0
 40
1.420606443848788
100
AcDbArc
 50
226.4407009027
 51
301.1528896895
  0
ARC
  5
15D
330
1F
100
AcDbEntity
  8
0
  6
Continuous
 62
     7
370
    15
100
AcDbCircle
 10
167.5808137001
 20
11.8543360127
 30
0.0
 40
1.738443222302109
100
AcDbArc
 50
120.4421463644
 51
203.465518591
  0
ARC
  5
15E
330
1F
100
AcDbEntity
  8
0
  6
Continuous
 62
     7
370
    15
100
AcDbCircle
 10
165.9657184165
 20
18.644298941
 30
0.0
 40
1.777194248025712
100
AcDbArc
 50
261.4011391169
 51
347.3834474917
  0
ARC
  5
15F
330
1F
100
AcDbEntity
  8
0
  6
Continuous
 62
     7
370
    15
100
AcDbCircle
 10
144.5778247683
 20
57.6111356823
 30
0.0
 40
1.883077121397571
100
AcDbArc
 50
184.2803721892
 51
273.7199993319
  0
ARC
  5
160
330
1F
100
AcDbEntity
  8
0
  6
Continuous
 62
     7
370
    15
100
AcDbCircle
 10
166.3468215044
 20
14.6685966666
 30
0.0
 40
1.362062817739274
100
AcDbArc
 50
285.0283393462
 51
353.4523183338
  0
ENDSEC
  0
SECTION
  2
OBJECTS
  0
DICTIONARY
  5
C
330
0
100
AcDbDictionary
281
     1
  3
ACAD_GROUP
350
D
  3
ACAD_LAYOUT
350
1A
  3
ACAD_MLINESTYLE
350
17
  3
ACAD_PLOTSETTINGS
350
19
  3
ACAD_PLOTSTYLENAME
350
E
  0
DICTIONARY
  5
D
102
{ACAD_REACTORS
330
C
102
}
330
C
100
AcDbDictionary
281
     1
  0
DICTIONARY
  5
1A
102
{ACAD_REACTORS
330
C
102
}
330
C
100
AcDbDictionary
281
     1
  3
Layout1
350
1E
  3
Layout2
350
26
  3
Model
350
22
  0
DICTIONARY
  5
17
102
{ACAD_REACTORS
330
C
102
}
330
C
100
AcDbDictionary
281
     1
  3
Standard
350
18
  0
DICTIONARY
  5
19
102
{ACAD_REACTORS
330
C
102
}
330
C
100
AcDbDictionary
281
     1
  0
ACDBDICTIONARYWDFLT
  5
E
102
{ACAD_REACTORS
330
C
102
}
330
C
100
AcDbDictionary
281
     1
  3
Normal
350
F
100
AcDbDictionaryWithDefault
340
F
  0
LAYOUT
  5
1E
102
{ACAD_REACTORS
330
1A
102
}
330
1A
100
AcDbPlotSettings
  1

  2
none_device
  4

  6

 40
0.0
 41
0.0
 42
0.0
 43
0.0
 44
0.0
 45
0.0
 46
0.0
 47
0.0
 48
0.0
 49
0.0
140
0.0
141
0.0
142
1.0
143
1.0
 70
   688
 72
     0
 73
     0
 74
     5
  7

 75
    16
147
1.0
148
0.0
149
0.0
100
AcDbLayout
  1
Layout1
 70
     1
 71
     1
 10
0.0
 20
0.0
 11
420.0
 21
297.0
 12
0.0
 22
0.0
 32
0.0
 14
1.0000000000E+20
 24
1.0000000000E+20
 34
1.0000000000E+20
 15
-1.0000000000E+20
 25
-1.0000000000E+20
 35
-1.0000000000E+20
146
0.0
 13
0.0
 23
0.0
 33
0.0
 16
1.0
 26
0.0
 36
0.0
 17
0.0
 27
1.0
 37
0.0
 76
     0
330
1B
  0
LAYOUT
  5
26
102
{ACAD_REACTORS
330
1A
102
}
330
1A
100
AcDbPlotSettings
  1

  2
none_device
  4

  6

 40
0.0
 41
0.0
 42
0.0
 43
0.0
 44
0.0
 45
0.0
 46
0.0
 47
0.0
 48
0.0
 49
0.0
140
0.0
141
0.0
142
1.0
143
1.0
 70
   688
 72
     0
 73
     0
 74
     5
  7

 75
    16
147
1.0
148
0.0
149
0.0
100
AcDbLayout
  1
Layout2
 70
     1
 71
     2
 10
0.0
 20
0.0
 11
0.0
 21
0.0
 12
0.0
 22
0.0
 32
0.0
 14
0.0
 24
0.0
 34
0.0
 15
0.0
 25
0.0
 35
0.0
146
0.0
 13
0.0
 23
0.0
 33
0.0
 16
1.0
 26
0.0
 36
0.0
 17
0.0
 27
1.0
 37
0.0
 76
     0
330
23
  0
LAYOUT
  5
22
102
{ACAD_REACTORS
330
1A
102
}
330
1A
100
AcDbPlotSettings
  1

  2
none_device
  4
ANSI_A_(11.00_x_8.50_Inches)
  6

 40
6.35
 41
19.05
 42
6.35000508
 43
19.05000254
 44
279.4
 45
215.9
 46
130.4885560807
 47
78.2172842472
 48
0.0
 49
0.0
140
0.0
141
0.0
142
0.0300413793
143
1.0
 70
  1696
 72
     0
 73
     0
 74
     0
  7

 75
     0
147
0.0179189148
148
0.0
149
0.0
100
AcDbLayout
  1
Model
 70
     1
 71
     0
 10
0.0
 20
0.0
 11
420.0
 21
297.0
 12
0.0
 22
0.0
 32
0.0
 14
-177.5
 24
-82.0
 34
0.0
 15
185.0
 25
110.0
 35
0.0
146
0.0
 13
0.0
 23
0.0
 33
0.0
 16
1.0
 26
0.0
 36
0.0
 17
0.0
 27
1.0
 37
0.0
 76
     0
330
1F
331
29
  0
MLINESTYLE
  5
18
102
{ACAD_REACTORS
330
17
102
}
330
17
100
AcDbMlineStyle
  2
Standard
 70
     0
  3

 62
   256
 51
90.0
 52
90.0
 71
     2
 49
0.5
 62
   256
  6
BYLAYER
 49
-0.5
 62
   256
  6
BYLAYER
  0
ACDBPLACEHOLDER
  5
F
102
{ACAD_REACTORS
330
E
102
}
330
E
  0
ENDSEC
  0
EOF
